<svg width="287" height="124" viewBox="0 0 287 124" fill="none" xmlns="http://www.w3.org/2000/svg">
<rect width="287" height="124" rx="8" fill="url(#paint0_linear_184_9686)"/>
<path d="M17.078 27V17.13H25.66V27H23.868V18.628H18.87V27H17.078ZM27.7404 29.52V20.154H29.4484V21.596H29.3084C29.4484 21.12 29.7331 20.7373 30.1624 20.448C30.6011 20.1587 31.1098 20.014 31.6884 20.014C32.2858 20.014 32.8084 20.1587 33.2564 20.448C33.7138 20.7373 34.0684 21.148 34.3204 21.68C34.5724 22.2027 34.6984 22.8327 34.6984 23.57C34.6984 24.298 34.5724 24.9327 34.3204 25.474C34.0684 26.006 33.7184 26.4167 33.2704 26.706C32.8224 26.9953 32.2951 27.14 31.6884 27.14C31.1191 27.14 30.6198 27 30.1904 26.72C29.7611 26.4307 29.4718 26.0573 29.3224 25.6H29.4904V29.52H27.7404ZM31.1984 25.81C31.7211 25.81 32.1411 25.6233 32.4584 25.25C32.7758 24.8673 32.9344 24.3073 32.9344 23.57C32.9344 22.8233 32.7758 22.268 32.4584 21.904C32.1411 21.5307 31.7211 21.344 31.1984 21.344C30.6758 21.344 30.2558 21.5307 29.9384 21.904C29.6211 22.268 29.4624 22.8233 29.4624 23.57C29.4624 24.3073 29.6211 24.8673 29.9384 25.25C30.2558 25.6233 30.6758 25.81 31.1984 25.81ZM39.462 27.14C38.7527 27.14 38.1367 26.9953 37.614 26.706C37.0914 26.4167 36.6854 26.006 36.396 25.474C36.1067 24.9327 35.962 24.298 35.962 23.57C35.962 22.842 36.1067 22.212 36.396 21.68C36.6854 21.148 37.0914 20.7373 37.614 20.448C38.1367 20.1587 38.7527 20.014 39.462 20.014C40.1714 20.014 40.7874 20.1587 41.31 20.448C41.8327 20.7373 42.2387 21.148 42.528 21.68C42.8174 22.212 42.962 22.842 42.962 23.57C42.962 24.298 42.8174 24.9327 42.528 25.474C42.2387 26.006 41.8327 26.4167 41.31 26.706C40.7874 26.9953 40.1714 27.14 39.462 27.14ZM39.462 25.81C39.9847 25.81 40.4047 25.6233 40.722 25.25C41.0394 24.8673 41.198 24.3073 41.198 23.57C41.198 22.8233 41.0394 22.268 40.722 21.904C40.4047 21.5307 39.9847 21.344 39.462 21.344C38.9394 21.344 38.5194 21.5307 38.202 21.904C37.8847 22.268 37.726 22.8233 37.726 23.57C37.726 24.3073 37.8847 24.8673 38.202 25.25C38.5194 25.6233 38.9394 25.81 39.462 25.81ZM44.5838 27V20.154H46.1658V25.208H45.8018L49.5958 20.154H51.0518V27H49.4698V21.932H49.8478L46.0398 27H44.5838ZM47.8038 19.286C47.3465 19.286 46.9452 19.2067 46.5998 19.048C46.2545 18.8893 45.9652 18.6653 45.7318 18.376C45.5078 18.0773 45.3492 17.732 45.2558 17.34L46.1518 17.032C46.3105 17.48 46.5205 17.8067 46.7818 18.012C47.0525 18.2173 47.3978 18.32 47.8178 18.32C48.2472 18.32 48.5925 18.2173 48.8538 18.012C49.1152 17.7973 49.3345 17.4753 49.5118 17.046L50.3658 17.34C50.2352 17.7693 50.0485 18.1287 49.8058 18.418C49.5632 18.7073 49.2738 18.9267 48.9378 19.076C48.6018 19.216 48.2238 19.286 47.8038 19.286ZM52.4031 28.82V25.628H53.1871C53.3737 25.3387 53.5184 25.0307 53.6211 24.704C53.7331 24.368 53.8124 23.99 53.8591 23.57C53.9151 23.1407 53.9431 22.6507 53.9431 22.1V20.154H59.2771V25.628H60.3971V28.82H58.9131V27H53.8871V28.82H52.4031ZM54.7691 25.628H57.6391V21.498H55.4411V22.506C55.4411 23.094 55.3804 23.6633 55.2591 24.214C55.1471 24.7647 54.9837 25.236 54.7691 25.628ZM61.6874 27V20.154H63.2694V25.208H62.9054L66.6994 20.154H68.1554V27H66.5734V21.932H66.9514L63.1434 27H61.6874ZM71.5786 27V21.526H69.2406V20.154H75.6806V21.526H73.3286V27H71.5786ZM80.0734 27.14C79.2987 27.14 78.6314 26.9953 78.0714 26.706C77.5114 26.4167 77.0774 26.006 76.7694 25.474C76.4707 24.942 76.3214 24.312 76.3214 23.584C76.3214 22.8747 76.4661 22.254 76.7554 21.722C77.0541 21.19 77.4601 20.7747 77.9734 20.476C78.4961 20.168 79.0887 20.014 79.7514 20.014C80.4047 20.014 80.9647 20.154 81.4314 20.434C81.8981 20.714 82.2574 21.1107 82.5094 21.624C82.7707 22.1373 82.9014 22.7487 82.9014 23.458V23.976H77.7354V22.968H81.6694L81.4454 23.178C81.4454 22.5433 81.3054 22.058 81.0254 21.722C80.7454 21.3767 80.3441 21.204 79.8214 21.204C79.4294 21.204 79.0934 21.2973 78.8134 21.484C78.5427 21.6613 78.3327 21.918 78.1834 22.254C78.0434 22.5807 77.9734 22.9727 77.9734 23.43V23.528C77.9734 24.0413 78.0527 24.466 78.2114 24.802C78.3701 25.138 78.6081 25.39 78.9254 25.558C79.2427 25.726 79.6347 25.81 80.1014 25.81C80.4841 25.81 80.8667 25.754 81.2494 25.642C81.6321 25.5207 81.9821 25.334 82.2994 25.082L82.7894 26.258C82.4627 26.5287 82.0521 26.7433 81.5574 26.902C81.0627 27.0607 80.5681 27.14 80.0734 27.14ZM88.2381 27V20.154H91.9341C92.5221 20.154 92.9981 20.224 93.3621 20.364C93.7355 20.504 94.0061 20.7093 94.1741 20.98C94.3421 21.2413 94.4261 21.5633 94.4261 21.946C94.4261 22.3753 94.2768 22.7393 93.9781 23.038C93.6888 23.3273 93.3015 23.5047 92.8161 23.57V23.374C93.2268 23.3927 93.5675 23.4767 93.8381 23.626C94.1088 23.7753 94.3141 23.976 94.4541 24.228C94.5941 24.4707 94.6641 24.7553 94.6641 25.082C94.6641 25.67 94.4401 26.1367 93.9921 26.482C93.5441 26.8273 92.8955 27 92.0461 27H88.2381ZM89.8621 25.922H91.8921C92.2748 25.922 92.5641 25.8427 92.7601 25.684C92.9655 25.5253 93.0681 25.292 93.0681 24.984C93.0681 24.676 92.9655 24.4427 92.7601 24.284C92.5641 24.1253 92.2748 24.046 91.8921 24.046H89.8621V25.922ZM89.8621 22.968H91.7661C92.1021 22.968 92.3635 22.8933 92.5501 22.744C92.7368 22.5853 92.8301 22.366 92.8301 22.086C92.8301 21.806 92.7368 21.596 92.5501 21.456C92.3635 21.3067 92.1021 21.232 91.7661 21.232H89.8621V22.968ZM99.5832 27.14C98.8085 27.14 98.1412 26.9953 97.5812 26.706C97.0212 26.4167 96.5872 26.006 96.2792 25.474C95.9805 24.942 95.8312 24.312 95.8312 23.584C95.8312 22.8747 95.9758 22.254 96.2652 21.722C96.5638 21.19 96.9698 20.7747 97.4832 20.476C98.0058 20.168 98.5985 20.014 99.2612 20.014C99.9145 20.014 100.475 20.154 100.941 20.434C101.408 20.714 101.767 21.1107 102.019 21.624C102.281 22.1373 102.411 22.7487 102.411 23.458V23.976H97.2452V22.968H101.179L100.955 23.178C100.955 22.5433 100.815 22.058 100.535 21.722C100.255 21.3767 99.8538 21.204 99.3312 21.204C98.9392 21.204 98.6032 21.2973 98.3232 21.484C98.0525 21.6613 97.8425 21.918 97.6932 22.254C97.5532 22.5807 97.4832 22.9727 97.4832 23.43V23.528C97.4832 24.0413 97.5625 24.466 97.7212 24.802C97.8798 25.138 98.1178 25.39 98.4352 25.558C98.7525 25.726 99.1445 25.81 99.6112 25.81C99.9938 25.81 100.377 25.754 100.759 25.642C101.142 25.5207 101.492 25.334 101.809 25.082L102.299 26.258C101.973 26.5287 101.562 26.7433 101.067 26.902C100.573 27.0607 100.078 27.14 99.5832 27.14ZM103.988 29.52V20.154H105.696V21.596H105.556C105.696 21.12 105.981 20.7373 106.41 20.448C106.849 20.1587 107.358 20.014 107.936 20.014C108.534 20.014 109.056 20.1587 109.504 20.448C109.962 20.7373 110.316 21.148 110.568 21.68C110.82 22.2027 110.946 22.8327 110.946 23.57C110.946 24.298 110.82 24.9327 110.568 25.474C110.316 26.006 109.966 26.4167 109.518 26.706C109.07 26.9953 108.543 27.14 107.936 27.14C107.367 27.14 106.868 27 106.438 26.72C106.009 26.4307 105.72 26.0573 105.57 25.6H105.738V29.52H103.988ZM107.446 25.81C107.969 25.81 108.389 25.6233 108.706 25.25C109.024 24.8673 109.182 24.3073 109.182 23.57C109.182 22.8233 109.024 22.268 108.706 21.904C108.389 21.5307 107.969 21.344 107.446 21.344C106.924 21.344 106.504 21.5307 106.186 21.904C105.869 22.268 105.71 22.8233 105.71 23.57C105.71 24.3073 105.869 24.8673 106.186 25.25C106.504 25.6233 106.924 25.81 107.446 25.81ZM112.574 27V20.154H114.156V25.208H113.792L117.586 20.154H119.042V27H117.46V21.932H117.838L114.03 27H112.574ZM125.027 29.52V25.698H125.167C125.018 26.1553 124.775 26.51 124.439 26.762C124.103 27.014 123.697 27.14 123.221 27.14C122.717 27.14 122.274 26.9953 121.891 26.706C121.509 26.4073 121.205 25.992 120.981 25.46C120.767 24.9187 120.659 24.2887 120.659 23.57C120.659 22.842 120.767 22.212 120.981 21.68C121.205 21.148 121.509 20.7373 121.891 20.448C122.274 20.1587 122.717 20.014 123.221 20.014C123.707 20.014 124.117 20.14 124.453 20.392C124.789 20.644 125.027 20.9987 125.167 21.456H125.027V17.13H126.777V21.456H126.623C126.763 20.9987 127.001 20.644 127.337 20.392C127.683 20.14 128.093 20.014 128.569 20.014C129.073 20.014 129.517 20.1587 129.899 20.448C130.291 20.7373 130.595 21.148 130.809 21.68C131.024 22.212 131.131 22.842 131.131 23.57C131.131 24.2887 131.024 24.9187 130.809 25.46C130.595 25.992 130.296 26.4073 129.913 26.706C129.531 26.9953 129.083 27.14 128.569 27.14C128.103 27.14 127.701 27.014 127.365 26.762C127.029 26.51 126.782 26.1553 126.623 25.698H126.777V29.52H125.027ZM123.739 25.824C124.01 25.824 124.243 25.7447 124.439 25.586C124.635 25.418 124.785 25.166 124.887 24.83C124.999 24.494 125.055 24.074 125.055 23.57C125.055 23.066 124.999 22.6507 124.887 22.324C124.775 21.988 124.621 21.7407 124.425 21.582C124.229 21.414 124.001 21.33 123.739 21.33C123.338 21.33 123.016 21.5167 122.773 21.89C122.531 22.254 122.409 22.814 122.409 23.57C122.409 24.3353 122.531 24.9047 122.773 25.278C123.016 25.642 123.338 25.824 123.739 25.824ZM128.051 25.824C128.462 25.824 128.784 25.642 129.017 25.278C129.26 24.9047 129.381 24.3353 129.381 23.57C129.381 22.814 129.26 22.254 129.017 21.89C128.775 21.5167 128.453 21.33 128.051 21.33C127.79 21.33 127.561 21.414 127.365 21.582C127.169 21.7407 127.015 21.988 126.903 22.324C126.801 22.6507 126.749 23.066 126.749 23.57C126.749 24.074 126.801 24.494 126.903 24.83C127.015 25.166 127.169 25.418 127.365 25.586C127.561 25.7447 127.79 25.824 128.051 25.824ZM132.754 27V20.154H134.336V25.208H133.972L137.766 20.154H139.222V27H137.64V21.932H138.018L134.21 27H132.754ZM141.203 27V20.154H142.953V22.814H143.947L145.935 20.154H147.811L145.305 23.584L144.927 23.024C145.179 23.052 145.403 23.122 145.599 23.234C145.804 23.346 145.991 23.5047 146.159 23.71C146.336 23.906 146.509 24.1533 146.677 24.452L148.119 27H146.243L145.095 24.984C144.974 24.7693 144.852 24.606 144.731 24.494C144.619 24.3727 144.488 24.2887 144.339 24.242C144.199 24.1953 144.026 24.172 143.821 24.172H142.953V27H141.203ZM151.291 27.14C150.797 27.14 150.353 27.0467 149.961 26.86C149.579 26.664 149.275 26.4027 149.051 26.076C148.837 25.7493 148.729 25.3807 148.729 24.97C148.729 24.466 148.86 24.0693 149.121 23.78C149.383 23.4813 149.807 23.2667 150.395 23.136C150.983 23.0053 151.772 22.94 152.761 22.94H153.461V23.948H152.775C152.337 23.948 151.968 23.9667 151.669 24.004C151.371 24.032 151.128 24.0833 150.941 24.158C150.764 24.2233 150.633 24.3167 150.549 24.438C150.475 24.5593 150.437 24.7087 150.437 24.886C150.437 25.194 150.545 25.446 150.759 25.642C150.974 25.838 151.273 25.936 151.655 25.936C151.963 25.936 152.234 25.866 152.467 25.726C152.71 25.5767 152.901 25.376 153.041 25.124C153.181 24.872 153.251 24.5827 153.251 24.256V22.646C153.251 22.1793 153.149 21.8433 152.943 21.638C152.738 21.4327 152.393 21.33 151.907 21.33C151.525 21.33 151.133 21.3907 150.731 21.512C150.33 21.624 149.924 21.8013 149.513 22.044L149.009 20.854C149.252 20.686 149.537 20.5413 149.863 20.42C150.199 20.2893 150.549 20.1913 150.913 20.126C151.287 20.0513 151.637 20.014 151.963 20.014C152.635 20.014 153.186 20.1167 153.615 20.322C154.054 20.5273 154.381 20.84 154.595 21.26C154.81 21.6707 154.917 22.2027 154.917 22.856V27H153.279V25.544H153.391C153.326 25.8707 153.195 26.1553 152.999 26.398C152.813 26.6313 152.575 26.8133 152.285 26.944C151.996 27.0747 151.665 27.14 151.291 27.14ZM162.821 28.82V27H156.871V20.154H158.621V25.628H161.435V20.154H163.185V25.628H164.305V28.82H162.821ZM165.594 27V20.154H167.176V25.208H166.812L170.606 20.154H172.062V27H170.48V21.932H170.858L167.05 27H165.594ZM180.343 27.14C179.708 27.14 179.148 27.0233 178.663 26.79C178.177 26.5473 177.785 26.202 177.487 25.754C177.188 25.306 176.997 24.7787 176.913 24.172H175.751V27H174.043V20.154H175.751V22.8H176.927C177.076 21.932 177.449 21.2507 178.047 20.756C178.653 20.2613 179.419 20.014 180.343 20.014C181.052 20.014 181.668 20.1587 182.191 20.448C182.713 20.7373 183.119 21.148 183.409 21.68C183.698 22.212 183.843 22.842 183.843 23.57C183.843 24.298 183.698 24.9327 183.409 25.474C183.119 26.006 182.713 26.4167 182.191 26.706C181.668 26.9953 181.052 27.14 180.343 27.14ZM180.343 25.81C180.865 25.81 181.285 25.6233 181.603 25.25C181.92 24.8673 182.079 24.3073 182.079 23.57C182.079 22.8233 181.92 22.268 181.603 21.904C181.285 21.5307 180.865 21.344 180.343 21.344C179.829 21.344 179.409 21.5307 179.083 21.904C178.765 22.268 178.607 22.8233 178.607 23.57C178.607 24.3073 178.765 24.8673 179.083 25.25C179.409 25.6233 179.829 25.81 180.343 25.81Z" fill="black"/>
<path d="M17.404 48.084C17.316 48.084 17.236 48.064 17.164 48.024C17.1 47.992 17.048 47.936 17.008 47.856C16.976 47.776 16.96 47.676 16.96 47.556V42.564C16.96 42.404 17 42.284 17.08 42.204C17.16 42.124 17.268 42.084 17.404 42.084C17.548 42.084 17.656 42.124 17.728 42.204C17.808 42.284 17.848 42.404 17.848 42.564V47.076H17.548L21.04 42.396C21.104 42.308 21.18 42.236 21.268 42.18C21.356 42.116 21.468 42.084 21.604 42.084C21.7 42.084 21.78 42.1 21.844 42.132C21.908 42.164 21.956 42.22 21.988 42.3C22.028 42.372 22.048 42.472 22.048 42.6V47.604C22.048 47.756 22.008 47.876 21.928 47.964C21.856 48.044 21.748 48.084 21.604 48.084C21.46 48.084 21.348 48.044 21.268 47.964C21.196 47.876 21.16 47.756 21.16 47.604V43.08H21.46L17.956 47.772C17.9 47.852 17.828 47.924 17.74 47.988C17.66 48.052 17.548 48.084 17.404 48.084ZM27.5536 48.084C27.3936 48.084 27.2696 48.04 27.1816 47.952C27.1016 47.864 27.0616 47.74 27.0616 47.58V42.72C27.0616 42.536 27.1096 42.4 27.2056 42.312C27.3016 42.216 27.4376 42.168 27.6136 42.168H31.5976C31.7736 42.168 31.9096 42.216 32.0056 42.312C32.1016 42.4 32.1496 42.536 32.1496 42.72V47.58C32.1496 47.74 32.1056 47.864 32.0176 47.952C31.9296 48.04 31.8096 48.084 31.6576 48.084C31.5056 48.084 31.3856 48.04 31.2976 47.952C31.2176 47.864 31.1776 47.74 31.1776 47.58V42.948H28.0336V47.58C28.0336 47.74 27.9936 47.864 27.9136 47.952C27.8336 48.04 27.7136 48.084 27.5536 48.084ZM36.5054 48.108C35.9374 48.108 35.4454 47.984 35.0294 47.736C34.6134 47.488 34.2894 47.14 34.0574 46.692C33.8334 46.236 33.7214 45.7 33.7214 45.084C33.7214 44.62 33.7854 44.204 33.9134 43.836C34.0414 43.46 34.2294 43.14 34.4774 42.876C34.7254 42.612 35.0174 42.412 35.3534 42.276C35.6974 42.132 36.0814 42.06 36.5054 42.06C37.0734 42.06 37.5654 42.184 37.9814 42.432C38.3974 42.68 38.7174 43.032 38.9414 43.488C39.1734 43.936 39.2894 44.468 39.2894 45.084C39.2894 45.548 39.2254 45.964 39.0974 46.332C38.9694 46.7 38.7814 47.02 38.5334 47.292C38.2854 47.556 37.9894 47.76 37.6454 47.904C37.3094 48.04 36.9294 48.108 36.5054 48.108ZM36.5054 47.328C36.8654 47.328 37.1814 47.24 37.4534 47.064C37.7254 46.888 37.9334 46.632 38.0774 46.296C38.2294 45.96 38.3054 45.556 38.3054 45.084C38.3054 44.356 38.1414 43.8 37.8134 43.416C37.4934 43.032 37.0574 42.84 36.5054 42.84C36.1374 42.84 35.8174 42.928 35.5454 43.104C35.2814 43.272 35.0734 43.524 34.9214 43.86C34.7774 44.188 34.7054 44.596 34.7054 45.084C34.7054 45.804 34.8694 46.36 35.1974 46.752C35.5254 47.136 35.9614 47.328 36.5054 47.328ZM45.2251 48.084C45.0731 48.084 44.9531 48.04 44.8651 47.952C44.7851 47.864 44.7451 47.74 44.7451 47.58V42.948H42.3931V43.692C42.3931 44.316 42.3611 44.868 42.2971 45.348C42.2411 45.82 42.1491 46.228 42.0211 46.572C41.8931 46.916 41.7211 47.204 41.5051 47.436C41.2971 47.668 41.0371 47.864 40.7251 48.024C40.6211 48.072 40.5211 48.084 40.4251 48.06C40.3291 48.044 40.2491 48.008 40.1851 47.952C40.1291 47.888 40.0891 47.812 40.0651 47.724C40.0491 47.636 40.0611 47.548 40.1011 47.46C40.1411 47.372 40.2131 47.3 40.3171 47.244C40.5491 47.116 40.7371 46.956 40.8811 46.764C41.0331 46.572 41.1531 46.332 41.2411 46.044C41.3291 45.756 41.3891 45.42 41.4211 45.036C41.4611 44.644 41.4811 44.184 41.4811 43.656V42.72C41.4811 42.536 41.5291 42.4 41.6251 42.312C41.7211 42.216 41.8571 42.168 42.0331 42.168H45.1651C45.3411 42.168 45.4771 42.216 45.5731 42.312C45.6691 42.4 45.7171 42.536 45.7171 42.72V47.58C45.7171 47.74 45.6731 47.864 45.5851 47.952C45.5051 48.04 45.3851 48.084 45.2251 48.084ZM48.9477 50.244C48.8277 50.244 48.7317 50.212 48.6597 50.148C48.5877 50.084 48.5437 49.996 48.5277 49.884C48.5197 49.78 48.5397 49.672 48.5877 49.56L49.4157 47.7V48.12L47.1117 42.768C47.0637 42.648 47.0477 42.536 47.0637 42.432C47.0797 42.328 47.1277 42.244 47.2077 42.18C47.2877 42.116 47.3997 42.084 47.5437 42.084C47.6717 42.084 47.7717 42.112 47.8437 42.168C47.9157 42.224 47.9797 42.324 48.0357 42.468L50.0037 47.292H49.6797L51.6717 42.468C51.7357 42.324 51.8037 42.224 51.8757 42.168C51.9477 42.112 52.0517 42.084 52.1877 42.084C52.3157 42.084 52.4117 42.116 52.4757 42.18C52.5477 42.244 52.5877 42.328 52.5957 42.432C52.6117 42.528 52.5957 42.636 52.5477 42.756L49.4757 49.86C49.4117 50.004 49.3397 50.104 49.2597 50.16C49.1877 50.216 49.0837 50.244 48.9477 50.244ZM58.1567 48.084C58.0047 48.084 57.8847 48.04 57.7967 47.952C57.7167 47.856 57.6767 47.728 57.6767 47.568V45.636C57.4527 45.772 57.2087 45.876 56.9447 45.948C56.6887 46.012 56.4167 46.044 56.1287 46.044C55.2967 46.044 54.6807 45.848 54.2807 45.456C53.8807 45.056 53.6807 44.452 53.6807 43.644V42.576C53.6807 42.416 53.7207 42.296 53.8007 42.216C53.8887 42.128 54.0127 42.084 54.1727 42.084C54.3247 42.084 54.4407 42.128 54.5207 42.216C54.6087 42.296 54.6527 42.416 54.6527 42.576V43.572C54.6527 44.148 54.7767 44.568 55.0247 44.832C55.2807 45.096 55.6887 45.228 56.2487 45.228C56.5367 45.228 56.7927 45.196 57.0167 45.132C57.2407 45.068 57.4567 44.964 57.6647 44.82V42.588C57.6647 42.252 57.8247 42.084 58.1447 42.084C58.3047 42.084 58.4247 42.128 58.5047 42.216C58.5927 42.304 58.6367 42.428 58.6367 42.588V47.568C58.6367 47.728 58.5967 47.856 58.5167 47.952C58.4367 48.04 58.3167 48.084 58.1567 48.084ZM60.9978 48.084C60.9098 48.084 60.8298 48.064 60.7578 48.024C60.6938 47.992 60.6418 47.936 60.6018 47.856C60.5698 47.776 60.5538 47.676 60.5538 47.556V42.564C60.5538 42.404 60.5938 42.284 60.6738 42.204C60.7538 42.124 60.8618 42.084 60.9978 42.084C61.1418 42.084 61.2498 42.124 61.3218 42.204C61.4018 42.284 61.4418 42.404 61.4418 42.564V47.076H61.1418L64.6338 42.396C64.6978 42.308 64.7738 42.236 64.8618 42.18C64.9498 42.116 65.0618 42.084 65.1978 42.084C65.2938 42.084 65.3738 42.1 65.4378 42.132C65.5018 42.164 65.5498 42.22 65.5818 42.3C65.6218 42.372 65.6418 42.472 65.6418 42.6V47.604C65.6418 47.756 65.6018 47.876 65.5218 47.964C65.4498 48.044 65.3418 48.084 65.1978 48.084C65.0538 48.084 64.9418 48.044 64.8618 47.964C64.7898 47.876 64.7538 47.756 64.7538 47.604V43.08H65.0538L61.5498 47.772C61.4938 47.852 61.4218 47.924 61.3338 47.988C61.2538 48.052 61.1418 48.084 60.9978 48.084ZM69.2656 48.084C69.1136 48.084 68.9936 48.04 68.9056 47.952C68.8176 47.864 68.7736 47.74 68.7736 47.58V42.948H67.0216C66.7176 42.948 66.5656 42.816 66.5656 42.552C66.5656 42.432 66.6056 42.34 66.6856 42.276C66.7656 42.204 66.8776 42.168 67.0216 42.168H71.5096C71.8056 42.168 71.9536 42.296 71.9536 42.552C71.9536 42.68 71.9136 42.78 71.8336 42.852C71.7616 42.916 71.6536 42.948 71.5096 42.948H69.7456V47.58C69.7456 47.74 69.7056 47.864 69.6256 47.952C69.5536 48.04 69.4336 48.084 69.2656 48.084ZM75.5102 48.108C74.8942 48.108 74.3622 47.988 73.9142 47.748C73.4742 47.5 73.1302 47.152 72.8822 46.704C72.6422 46.256 72.5222 45.72 72.5222 45.096C72.5222 44.488 72.6422 43.96 72.8822 43.512C73.1222 43.056 73.4502 42.7 73.8662 42.444C74.2902 42.188 74.7782 42.06 75.3302 42.06C75.7222 42.06 76.0742 42.128 76.3862 42.264C76.6982 42.392 76.9622 42.58 77.1782 42.828C77.4022 43.076 77.5702 43.376 77.6822 43.728C77.8022 44.08 77.8622 44.476 77.8622 44.916C77.8622 45.044 77.8262 45.14 77.7542 45.204C77.6822 45.26 77.5782 45.288 77.4422 45.288H73.2662V44.652H77.2142L77.0222 44.808C77.0222 44.376 76.9582 44.012 76.8302 43.716C76.7022 43.412 76.5142 43.18 76.2662 43.02C76.0262 42.86 75.7222 42.78 75.3542 42.78C74.9462 42.78 74.5982 42.876 74.3102 43.068C74.0302 43.252 73.8182 43.512 73.6742 43.848C73.5302 44.176 73.4582 44.56 73.4582 45V45.072C73.4582 45.808 73.6342 46.368 73.9862 46.752C74.3462 47.136 74.8542 47.328 75.5102 47.328C75.7822 47.328 76.0502 47.292 76.3142 47.22C76.5862 47.148 76.8502 47.028 77.1062 46.86C77.2182 46.788 77.3182 46.756 77.4062 46.764C77.5022 46.764 77.5782 46.792 77.6342 46.848C77.6902 46.896 77.7262 46.96 77.7422 47.04C77.7662 47.112 77.7582 47.192 77.7182 47.28C77.6862 47.368 77.6182 47.444 77.5142 47.508C77.2502 47.7 76.9382 47.848 76.5782 47.952C76.2182 48.056 75.8622 48.108 75.5102 48.108ZM16.744 63.644C16.608 63.644 16.504 63.604 16.432 63.524C16.36 63.444 16.324 63.332 16.324 63.188V61.7C16.324 61.38 16.484 61.22 16.804 61.22H17.38L16.804 61.424C17.02 61.136 17.192 60.824 17.32 60.488C17.456 60.144 17.556 59.76 17.62 59.336C17.684 58.912 17.716 58.428 17.716 57.884V56.72C17.716 56.536 17.764 56.4 17.86 56.312C17.956 56.216 18.092 56.168 18.268 56.168H21.292C21.476 56.168 21.612 56.216 21.7 56.312C21.796 56.4 21.844 56.536 21.844 56.72V61.664L21.4 61.22H22.288C22.44 61.22 22.556 61.26 22.636 61.34C22.724 61.42 22.768 61.54 22.768 61.7V63.188C22.768 63.492 22.628 63.644 22.348 63.644C22.212 63.644 22.108 63.604 22.036 63.524C21.964 63.444 21.928 63.332 21.928 63.188V62H17.152V63.188C17.152 63.492 17.016 63.644 16.744 63.644ZM17.872 61.22H20.92V56.936H18.58V58.052C18.58 58.652 18.52 59.232 18.4 59.792C18.28 60.344 18.104 60.82 17.872 61.22ZM26.4976 62.108C25.9296 62.108 25.4376 61.984 25.0216 61.736C24.6056 61.488 24.2816 61.14 24.0496 60.692C23.8256 60.236 23.7136 59.7 23.7136 59.084C23.7136 58.62 23.7776 58.204 23.9056 57.836C24.0336 57.46 24.2216 57.14 24.4696 56.876C24.7176 56.612 25.0096 56.412 25.3456 56.276C25.6896 56.132 26.0736 56.06 26.4976 56.06C27.0656 56.06 27.5576 56.184 27.9736 56.432C28.3896 56.68 28.7096 57.032 28.9336 57.488C29.1656 57.936 29.2816 58.468 29.2816 59.084C29.2816 59.548 29.2176 59.964 29.0896 60.332C28.9616 60.7 28.7736 61.02 28.5256 61.292C28.2776 61.556 27.9816 61.76 27.6376 61.904C27.3016 62.04 26.9216 62.108 26.4976 62.108ZM26.4976 61.328C26.8576 61.328 27.1736 61.24 27.4456 61.064C27.7176 60.888 27.9256 60.632 28.0696 60.296C28.2216 59.96 28.2976 59.556 28.2976 59.084C28.2976 58.356 28.1336 57.8 27.8056 57.416C27.4856 57.032 27.0496 56.84 26.4976 56.84C26.1296 56.84 25.8096 56.928 25.5376 57.104C25.2736 57.272 25.0656 57.524 24.9136 57.86C24.7696 58.188 24.6976 58.596 24.6976 59.084C24.6976 59.804 24.8616 60.36 25.1896 60.752C25.5176 61.136 25.9536 61.328 26.4976 61.328ZM31.3504 62.084C31.1904 62.084 31.0664 62.04 30.9784 61.952C30.8984 61.864 30.8584 61.74 30.8584 61.58V56.72C30.8584 56.536 30.9064 56.4 31.0024 56.312C31.0984 56.216 31.2344 56.168 31.4104 56.168H35.3944C35.5704 56.168 35.7064 56.216 35.8024 56.312C35.8984 56.4 35.9464 56.536 35.9464 56.72V61.58C35.9464 61.74 35.9024 61.864 35.8144 61.952C35.7264 62.04 35.6064 62.084 35.4544 62.084C35.3024 62.084 35.1824 62.04 35.0944 61.952C35.0144 61.864 34.9744 61.74 34.9744 61.58V56.948H31.8304V61.58C31.8304 61.74 31.7904 61.864 31.7104 61.952C31.6304 62.04 31.5104 62.084 31.3504 62.084ZM40.3023 62.108C39.7343 62.108 39.2423 61.984 38.8263 61.736C38.4103 61.488 38.0863 61.14 37.8543 60.692C37.6303 60.236 37.5183 59.7 37.5183 59.084C37.5183 58.62 37.5823 58.204 37.7103 57.836C37.8383 57.46 38.0263 57.14 38.2743 56.876C38.5223 56.612 38.8143 56.412 39.1503 56.276C39.4943 56.132 39.8783 56.06 40.3023 56.06C40.8703 56.06 41.3623 56.184 41.7783 56.432C42.1943 56.68 42.5143 57.032 42.7383 57.488C42.9703 57.936 43.0863 58.468 43.0863 59.084C43.0863 59.548 43.0223 59.964 42.8943 60.332C42.7663 60.7 42.5783 61.02 42.3303 61.292C42.0823 61.556 41.7863 61.76 41.4423 61.904C41.1063 62.04 40.7263 62.108 40.3023 62.108ZM40.3023 61.328C40.6623 61.328 40.9783 61.24 41.2503 61.064C41.5223 60.888 41.7303 60.632 41.8743 60.296C42.0263 59.96 42.1023 59.556 42.1023 59.084C42.1023 58.356 41.9383 57.8 41.6103 57.416C41.2903 57.032 40.8543 56.84 40.3023 56.84C39.9343 56.84 39.6143 56.928 39.3423 57.104C39.0783 57.272 38.8703 57.524 38.7183 57.86C38.5743 58.188 38.5023 58.596 38.5023 59.084C38.5023 59.804 38.6663 60.36 38.9943 60.752C39.3223 61.136 39.7583 61.328 40.3023 61.328ZM49.0219 62.084C48.8699 62.084 48.7499 62.04 48.6619 61.952C48.5819 61.864 48.5419 61.74 48.5419 61.58V56.948H46.1899V57.692C46.1899 58.316 46.1579 58.868 46.0939 59.348C46.0379 59.82 45.9459 60.228 45.8179 60.572C45.6899 60.916 45.5179 61.204 45.3019 61.436C45.0939 61.668 44.8339 61.864 44.5219 62.024C44.4179 62.072 44.3179 62.084 44.2219 62.06C44.1259 62.044 44.0459 62.008 43.9819 61.952C43.9259 61.888 43.8859 61.812 43.8619 61.724C43.8459 61.636 43.8579 61.548 43.8979 61.46C43.9379 61.372 44.0099 61.3 44.1139 61.244C44.3459 61.116 44.5339 60.956 44.6779 60.764C44.8299 60.572 44.9499 60.332 45.0379 60.044C45.1259 59.756 45.1859 59.42 45.2179 59.036C45.2579 58.644 45.2779 58.184 45.2779 57.656V56.72C45.2779 56.536 45.3259 56.4 45.4219 56.312C45.5179 56.216 45.6539 56.168 45.8299 56.168H48.9619C49.1379 56.168 49.2739 56.216 49.3699 56.312C49.4659 56.4 49.5139 56.536 49.5139 56.72V61.58C49.5139 61.74 49.4699 61.864 49.3819 61.952C49.3019 62.04 49.1819 62.084 49.0219 62.084ZM51.9286 62.084C51.7686 62.084 51.6446 62.04 51.5566 61.952C51.4766 61.864 51.4366 61.74 51.4366 61.58V56.576C51.4366 56.408 51.4766 56.284 51.5566 56.204C51.6446 56.124 51.7686 56.084 51.9286 56.084C52.0806 56.084 52.1966 56.124 52.2766 56.204C52.3646 56.284 52.4086 56.408 52.4086 56.576V58.592H55.5886V56.576C55.5886 56.408 55.6286 56.284 55.7086 56.204C55.7966 56.124 55.9166 56.084 56.0686 56.084C56.2206 56.084 56.3406 56.124 56.4286 56.204C56.5166 56.284 56.5606 56.408 56.5606 56.576V61.58C56.5606 61.74 56.5166 61.864 56.4286 61.952C56.3406 62.04 56.2206 62.084 56.0686 62.084C55.9166 62.084 55.7966 62.04 55.7086 61.952C55.6286 61.864 55.5886 61.74 55.5886 61.58V59.384H52.4086V61.58C52.4086 61.74 52.3686 61.864 52.2886 61.952C52.2086 62.04 52.0886 62.084 51.9286 62.084ZM58.9235 62.084C58.8355 62.084 58.7555 62.064 58.6835 62.024C58.6195 61.992 58.5675 61.936 58.5275 61.856C58.4955 61.776 58.4795 61.676 58.4795 61.556V56.564C58.4795 56.404 58.5195 56.284 58.5995 56.204C58.6795 56.124 58.7875 56.084 58.9235 56.084C59.0675 56.084 59.1755 56.124 59.2475 56.204C59.3275 56.284 59.3675 56.404 59.3675 56.564V61.076H59.0675L62.5595 56.396C62.6235 56.308 62.6995 56.236 62.7875 56.18C62.8755 56.116 62.9875 56.084 63.1235 56.084C63.2195 56.084 63.2995 56.1 63.3635 56.132C63.4275 56.164 63.4755 56.22 63.5075 56.3C63.5475 56.372 63.5675 56.472 63.5675 56.6V61.604C63.5675 61.756 63.5275 61.876 63.4475 61.964C63.3755 62.044 63.2675 62.084 63.1235 62.084C62.9795 62.084 62.8675 62.044 62.7875 61.964C62.7155 61.876 62.6795 61.756 62.6795 61.604V57.08H62.9795L59.4755 61.772C59.4195 61.852 59.3475 61.924 59.2595 61.988C59.1795 62.052 59.0675 62.084 58.9235 62.084ZM67.1913 62.084C67.0393 62.084 66.9193 62.04 66.8313 61.952C66.7433 61.864 66.6993 61.74 66.6993 61.58V56.948H64.9473C64.6433 56.948 64.4913 56.816 64.4913 56.552C64.4913 56.432 64.5313 56.34 64.6113 56.276C64.6913 56.204 64.8033 56.168 64.9473 56.168H69.4353C69.7313 56.168 69.8793 56.296 69.8793 56.552C69.8793 56.68 69.8393 56.78 69.7593 56.852C69.6873 56.916 69.5793 56.948 69.4353 56.948H67.6713V61.58C67.6713 61.74 67.6313 61.864 67.5513 61.952C67.4793 62.04 67.3593 62.084 67.1913 62.084ZM73.4359 62.108C72.8199 62.108 72.2879 61.988 71.8399 61.748C71.3999 61.5 71.0559 61.152 70.8079 60.704C70.5679 60.256 70.4479 59.72 70.4479 59.096C70.4479 58.488 70.5679 57.96 70.8079 57.512C71.0479 57.056 71.3759 56.7 71.7919 56.444C72.2159 56.188 72.7039 56.06 73.2559 56.06C73.6479 56.06 73.9999 56.128 74.3119 56.264C74.6239 56.392 74.8879 56.58 75.1039 56.828C75.3279 57.076 75.4959 57.376 75.6079 57.728C75.7279 58.08 75.7879 58.476 75.7879 58.916C75.7879 59.044 75.7519 59.14 75.6799 59.204C75.6079 59.26 75.5039 59.288 75.3679 59.288H71.1919V58.652H75.1399L74.9479 58.808C74.9479 58.376 74.8839 58.012 74.7559 57.716C74.6279 57.412 74.4399 57.18 74.1919 57.02C73.9519 56.86 73.6479 56.78 73.2799 56.78C72.8719 56.78 72.5239 56.876 72.2359 57.068C71.9559 57.252 71.7439 57.512 71.5999 57.848C71.4559 58.176 71.3839 58.56 71.3839 59V59.072C71.3839 59.808 71.5599 60.368 71.9119 60.752C72.2719 61.136 72.7799 61.328 73.4359 61.328C73.7079 61.328 73.9759 61.292 74.2399 61.22C74.5119 61.148 74.7759 61.028 75.0319 60.86C75.1439 60.788 75.2439 60.756 75.3319 60.764C75.4279 60.764 75.5039 60.792 75.5599 60.848C75.6159 60.896 75.6519 60.96 75.6679 61.04C75.6919 61.112 75.6839 61.192 75.6439 61.28C75.6119 61.368 75.5439 61.444 75.4399 61.508C75.1759 61.7 74.8639 61.848 74.5039 61.952C74.1439 62.056 73.7879 62.108 73.4359 62.108ZM81.7758 62.084C81.6238 62.084 81.5038 62.04 81.4158 61.952C81.3358 61.864 81.2958 61.74 81.2958 61.58V56.948H78.9438V57.692C78.9438 58.316 78.9118 58.868 78.8478 59.348C78.7918 59.82 78.6998 60.228 78.5718 60.572C78.4438 60.916 78.2718 61.204 78.0558 61.436C77.8478 61.668 77.5878 61.864 77.2758 62.024C77.1718 62.072 77.0718 62.084 76.9758 62.06C76.8798 62.044 76.7998 62.008 76.7358 61.952C76.6798 61.888 76.6398 61.812 76.6158 61.724C76.5998 61.636 76.6118 61.548 76.6518 61.46C76.6918 61.372 76.7638 61.3 76.8678 61.244C77.0998 61.116 77.2878 60.956 77.4318 60.764C77.5838 60.572 77.7038 60.332 77.7918 60.044C77.8798 59.756 77.9398 59.42 77.9718 59.036C78.0118 58.644 78.0318 58.184 78.0318 57.656V56.72C78.0318 56.536 78.0798 56.4 78.1758 56.312C78.2718 56.216 78.4078 56.168 78.5838 56.168H81.7158C81.8918 56.168 82.0278 56.216 82.1238 56.312C82.2198 56.4 82.2678 56.536 82.2678 56.72V61.58C82.2678 61.74 82.2238 61.864 82.1358 61.952C82.0558 62.04 81.9358 62.084 81.7758 62.084ZM84.6945 62C84.5345 62 84.4105 61.956 84.3225 61.868C84.2345 61.78 84.1905 61.656 84.1905 61.496V56.576C84.1905 56.408 84.2305 56.284 84.3105 56.204C84.3985 56.124 84.5225 56.084 84.6825 56.084C84.8345 56.084 84.9505 56.124 85.0305 56.204C85.1185 56.284 85.1625 56.408 85.1625 56.576V58.244H86.9265C87.6705 58.244 88.2345 58.408 88.6185 58.736C89.0025 59.056 89.1945 59.512 89.1945 60.104C89.1945 60.496 89.1025 60.836 88.9185 61.124C88.7425 61.404 88.4865 61.62 88.1505 61.772C87.8225 61.924 87.4145 62 86.9265 62H84.6945ZM85.1625 61.304H86.8305C87.2865 61.304 87.6385 61.208 87.8865 61.016C88.1345 60.816 88.2585 60.516 88.2585 60.116C88.2585 59.708 88.1345 59.412 87.8865 59.228C87.6385 59.036 87.2865 58.94 86.8305 58.94H85.1625V61.304ZM91.1278 62.084C90.9678 62.084 90.8438 62.04 90.7558 61.952C90.6758 61.864 90.6358 61.74 90.6358 61.58V56.576C90.6358 56.408 90.6758 56.284 90.7558 56.204C90.8438 56.124 90.9678 56.084 91.1278 56.084C91.2798 56.084 91.3958 56.124 91.4758 56.204C91.5638 56.284 91.6078 56.408 91.6078 56.576V58.592H94.7878V56.576C94.7878 56.408 94.8278 56.284 94.9078 56.204C94.9958 56.124 95.1158 56.084 95.2678 56.084C95.4198 56.084 95.5398 56.124 95.6278 56.204C95.7158 56.284 95.7598 56.408 95.7598 56.576V61.58C95.7598 61.74 95.7158 61.864 95.6278 61.952C95.5398 62.04 95.4198 62.084 95.2678 62.084C95.1158 62.084 94.9958 62.04 94.9078 61.952C94.8278 61.864 94.7878 61.74 94.7878 61.58V59.384H91.6078V61.58C91.6078 61.74 91.5678 61.864 91.4878 61.952C91.4078 62.04 91.2878 62.084 91.1278 62.084ZM98.1828 62C98.0228 62 97.8988 61.956 97.8108 61.868C97.7228 61.78 97.6788 61.656 97.6788 61.496V56.576C97.6788 56.408 97.7188 56.284 97.7988 56.204C97.8868 56.124 98.0108 56.084 98.1708 56.084C98.3228 56.084 98.4388 56.124 98.5188 56.204C98.6068 56.284 98.6508 56.408 98.6508 56.576V58.244H100.415C101.159 58.244 101.723 58.408 102.107 58.736C102.491 59.056 102.683 59.512 102.683 60.104C102.683 60.496 102.591 60.836 102.407 61.124C102.231 61.404 101.975 61.62 101.639 61.772C101.311 61.924 100.903 62 100.415 62H98.1828ZM98.6508 61.304H100.319C100.775 61.304 101.127 61.208 101.375 61.016C101.623 60.816 101.747 60.516 101.747 60.116C101.747 59.708 101.623 59.412 101.375 59.228C101.127 59.036 100.775 58.94 100.319 58.94H98.6508V61.304ZM104.027 62.084C103.875 62.084 103.755 62.04 103.667 61.952C103.587 61.864 103.547 61.74 103.547 61.58V56.576C103.547 56.408 103.587 56.284 103.667 56.204C103.755 56.124 103.875 56.084 104.027 56.084C104.187 56.084 104.307 56.124 104.387 56.204C104.475 56.284 104.519 56.408 104.519 56.576V61.58C104.519 61.916 104.355 62.084 104.027 62.084ZM109.084 62.108C108.468 62.108 107.936 61.988 107.488 61.748C107.048 61.5 106.704 61.152 106.456 60.704C106.216 60.256 106.096 59.72 106.096 59.096C106.096 58.488 106.216 57.96 106.456 57.512C106.696 57.056 107.024 56.7 107.44 56.444C107.864 56.188 108.352 56.06 108.904 56.06C109.296 56.06 109.648 56.128 109.96 56.264C110.272 56.392 110.536 56.58 110.752 56.828C110.976 57.076 111.144 57.376 111.256 57.728C111.376 58.08 111.436 58.476 111.436 58.916C111.436 59.044 111.4 59.14 111.328 59.204C111.256 59.26 111.152 59.288 111.016 59.288H106.84V58.652H110.788L110.596 58.808C110.596 58.376 110.532 58.012 110.404 57.716C110.276 57.412 110.088 57.18 109.84 57.02C109.6 56.86 109.296 56.78 108.928 56.78C108.52 56.78 108.172 56.876 107.884 57.068C107.604 57.252 107.392 57.512 107.248 57.848C107.104 58.176 107.032 58.56 107.032 59V59.072C107.032 59.808 107.208 60.368 107.56 60.752C107.92 61.136 108.428 61.328 109.084 61.328C109.356 61.328 109.624 61.292 109.888 61.22C110.16 61.148 110.424 61.028 110.68 60.86C110.792 60.788 110.892 60.756 110.98 60.764C111.076 60.764 111.152 60.792 111.208 60.848C111.264 60.896 111.3 60.96 111.316 61.04C111.34 61.112 111.332 61.192 111.292 61.28C111.26 61.368 111.192 61.444 111.088 61.508C110.824 61.7 110.512 61.848 110.152 61.952C109.792 62.056 109.436 62.108 109.084 62.108ZM17.464 76C17.304 76 17.18 75.956 17.092 75.868C17.004 75.78 16.96 75.656 16.96 75.496V70.672C16.96 70.512 17.004 70.388 17.092 70.3C17.18 70.212 17.304 70.168 17.464 70.168H19.804C20.268 70.168 20.648 70.228 20.944 70.348C21.24 70.46 21.46 70.632 21.604 70.864C21.748 71.088 21.82 71.368 21.82 71.704C21.82 72.072 21.688 72.384 21.424 72.64C21.168 72.896 20.832 73.048 20.416 73.096V72.94C20.912 72.956 21.3 73.096 21.58 73.36C21.868 73.624 22.012 73.968 22.012 74.392C22.012 74.888 21.828 75.28 21.46 75.568C21.092 75.856 20.572 76 19.9 76H17.464ZM17.884 75.34H19.864C20.256 75.34 20.556 75.256 20.764 75.088C20.98 74.912 21.088 74.664 21.088 74.344C21.088 74.024 20.98 73.78 20.764 73.612C20.556 73.444 20.256 73.36 19.864 73.36H17.884V75.34ZM17.884 72.7H19.756C20.116 72.7 20.396 72.616 20.596 72.448C20.804 72.28 20.908 72.048 20.908 71.752C20.908 71.456 20.804 71.228 20.596 71.068C20.396 70.908 20.116 70.828 19.756 70.828H17.884V72.7ZM25.9585 76.108C25.3905 76.108 24.8985 75.984 24.4825 75.736C24.0665 75.488 23.7425 75.14 23.5105 74.692C23.2865 74.236 23.1745 73.7 23.1745 73.084C23.1745 72.62 23.2385 72.204 23.3665 71.836C23.4945 71.46 23.6825 71.14 23.9305 70.876C24.1785 70.612 24.4705 70.412 24.8065 70.276C25.1505 70.132 25.5345 70.06 25.9585 70.06C26.5265 70.06 27.0185 70.184 27.4345 70.432C27.8505 70.68 28.1705 71.032 28.3945 71.488C28.6265 71.936 28.7425 72.468 28.7425 73.084C28.7425 73.548 28.6785 73.964 28.5505 74.332C28.4225 74.7 28.2345 75.02 27.9865 75.292C27.7385 75.556 27.4425 75.76 27.0985 75.904C26.7625 76.04 26.3825 76.108 25.9585 76.108ZM25.9585 75.328C26.3185 75.328 26.6345 75.24 26.9065 75.064C27.1785 74.888 27.3865 74.632 27.5305 74.296C27.6825 73.96 27.7585 73.556 27.7585 73.084C27.7585 72.356 27.5945 71.8 27.2665 71.416C26.9465 71.032 26.5105 70.84 25.9585 70.84C25.5905 70.84 25.2705 70.928 24.9985 71.104C24.7345 71.272 24.5265 71.524 24.3745 71.86C24.2305 72.188 24.1585 72.596 24.1585 73.084C24.1585 73.804 24.3225 74.36 24.6505 74.752C24.9785 75.136 25.4145 75.328 25.9585 75.328ZM32.2514 76.108C31.8354 76.108 31.4314 76.06 31.0394 75.964C30.6474 75.868 30.3114 75.728 30.0314 75.544C29.9354 75.48 29.8674 75.408 29.8274 75.328C29.7954 75.248 29.7834 75.168 29.7914 75.088C29.7994 75.008 29.8274 74.94 29.8754 74.884C29.9314 74.828 30.0034 74.796 30.0914 74.788C30.1874 74.772 30.2874 74.8 30.3914 74.872C30.6474 75.032 30.9354 75.152 31.2554 75.232C31.5834 75.312 31.9074 75.352 32.2274 75.352C32.8114 75.352 33.2274 75.268 33.4754 75.1C33.7234 74.924 33.8474 74.676 33.8474 74.356C33.8474 74.044 33.7394 73.808 33.5234 73.648C33.3154 73.488 33.0194 73.408 32.6354 73.408H31.5914C31.4634 73.408 31.3594 73.376 31.2794 73.312C31.2074 73.24 31.1714 73.148 31.1714 73.036C31.1714 72.924 31.2074 72.836 31.2794 72.772C31.3594 72.708 31.4634 72.676 31.5914 72.676H32.5154C32.8594 72.676 33.1314 72.596 33.3314 72.436C33.5394 72.276 33.6434 72.056 33.6434 71.776C33.6434 71.48 33.5354 71.248 33.3194 71.08C33.1034 70.904 32.7394 70.816 32.2274 70.816C31.9154 70.816 31.6154 70.852 31.3274 70.924C31.0394 70.988 30.7634 71.096 30.4994 71.248C30.3554 71.32 30.2354 71.344 30.1394 71.32C30.0434 71.288 29.9714 71.228 29.9234 71.14C29.8754 71.052 29.8674 70.956 29.8994 70.852C29.9314 70.748 30.0074 70.664 30.1274 70.6C30.4394 70.416 30.7834 70.28 31.1594 70.192C31.5354 70.104 31.9314 70.06 32.3474 70.06C33.0834 70.06 33.6354 70.204 34.0034 70.492C34.3794 70.78 34.5674 71.184 34.5674 71.704C34.5674 72.072 34.4394 72.384 34.1834 72.64C33.9274 72.896 33.5874 73.048 33.1634 73.096V72.94C33.6514 72.956 34.0394 73.096 34.3274 73.36C34.6234 73.616 34.7714 73.96 34.7714 74.392C34.7714 74.912 34.5594 75.328 34.1354 75.64C33.7114 75.952 33.0834 76.108 32.2514 76.108ZM38.7202 76.108C38.1522 76.108 37.6602 75.984 37.2442 75.736C36.8282 75.488 36.5042 75.14 36.2722 74.692C36.0482 74.236 35.9362 73.7 35.9362 73.084C35.9362 72.62 36.0002 72.204 36.1282 71.836C36.2562 71.46 36.4442 71.14 36.6922 70.876C36.9402 70.612 37.2322 70.412 37.5682 70.276C37.9122 70.132 38.2962 70.06 38.7202 70.06C39.2882 70.06 39.7802 70.184 40.1962 70.432C40.6122 70.68 40.9322 71.032 41.1562 71.488C41.3882 71.936 41.5042 72.468 41.5042 73.084C41.5042 73.548 41.4402 73.964 41.3122 74.332C41.1842 74.7 40.9962 75.02 40.7482 75.292C40.5002 75.556 40.2042 75.76 39.8602 75.904C39.5242 76.04 39.1442 76.108 38.7202 76.108ZM38.7202 75.328C39.0802 75.328 39.3962 75.24 39.6682 75.064C39.9402 74.888 40.1482 74.632 40.2922 74.296C40.4442 73.96 40.5202 73.556 40.5202 73.084C40.5202 72.356 40.3562 71.8 40.0282 71.416C39.7082 71.032 39.2722 70.84 38.7202 70.84C38.3522 70.84 38.0322 70.928 37.7602 71.104C37.4962 71.272 37.2882 71.524 37.1362 71.86C36.9922 72.188 36.9202 72.596 36.9202 73.084C36.9202 73.804 37.0842 74.36 37.4122 74.752C37.7402 75.136 38.1762 75.328 38.7202 75.328ZM46.8251 76.084C46.6731 76.084 46.5531 76.04 46.4651 75.952C46.3851 75.864 46.3451 75.74 46.3451 75.58V73.384H45.5891C45.3731 73.384 45.1891 73.408 45.0371 73.456C44.8851 73.504 44.7451 73.592 44.6171 73.72C44.4971 73.84 44.3691 74.012 44.2331 74.236L43.2851 75.82C43.2211 75.924 43.1411 75.996 43.0451 76.036C42.9491 76.076 42.8571 76.084 42.7691 76.06C42.6811 76.044 42.6011 76.004 42.5291 75.94C42.4571 75.876 42.4131 75.8 42.3971 75.712C42.3811 75.624 42.4051 75.524 42.4691 75.412L43.3331 73.984C43.5091 73.68 43.6731 73.44 43.8251 73.264C43.9851 73.08 44.1451 72.944 44.3051 72.856C44.4731 72.768 44.6691 72.712 44.8931 72.688L44.6411 73L42.9371 70.828C42.8651 70.724 42.8251 70.628 42.8171 70.54C42.8171 70.444 42.8451 70.36 42.9011 70.288C42.9571 70.216 43.0251 70.168 43.1051 70.144C43.1931 70.112 43.2811 70.112 43.3691 70.144C43.4651 70.168 43.5491 70.228 43.6211 70.324L45.4211 72.604H46.3451V70.612C46.3451 70.444 46.3851 70.32 46.4651 70.24C46.5531 70.152 46.6731 70.108 46.8251 70.108C46.9851 70.108 47.1051 70.152 47.1851 70.24C47.2731 70.32 47.3171 70.444 47.3171 70.612V72.604H48.2531L50.0291 70.324C50.1091 70.228 50.1971 70.168 50.2931 70.144C50.3891 70.112 50.4771 70.112 50.5571 70.144C50.6371 70.168 50.7051 70.216 50.7611 70.288C50.8171 70.352 50.8411 70.432 50.8331 70.528C50.8331 70.624 50.7971 70.724 50.7251 70.828L49.0211 73L48.7691 72.688C48.9931 72.712 49.1851 72.768 49.3451 72.856C49.5131 72.944 49.6731 73.076 49.8251 73.252C49.9851 73.428 50.1531 73.672 50.3291 73.984L51.1931 75.412C51.2491 75.524 51.2691 75.624 51.2531 75.712C51.2451 75.8 51.2051 75.876 51.1331 75.94C51.0611 76.004 50.9771 76.044 50.8811 76.06C50.7931 76.084 50.7051 76.076 50.6171 76.036C50.5291 75.996 50.4491 75.924 50.3771 75.82L49.4291 74.236C49.2931 74.012 49.1651 73.84 49.0451 73.72C48.9251 73.592 48.7891 73.504 48.6371 73.456C48.4851 73.408 48.2971 73.384 48.0731 73.384H47.3171V75.58C47.3171 75.74 47.2731 75.864 47.1851 75.952C47.1051 76.04 46.9851 76.084 46.8251 76.084ZM52.995 76.084C52.835 76.084 52.711 76.04 52.623 75.952C52.543 75.864 52.503 75.74 52.503 75.58V70.576C52.503 70.408 52.543 70.284 52.623 70.204C52.711 70.124 52.835 70.084 52.995 70.084C53.147 70.084 53.263 70.124 53.343 70.204C53.431 70.284 53.475 70.408 53.475 70.576V72.592H56.655V70.576C56.655 70.408 56.695 70.284 56.775 70.204C56.863 70.124 56.983 70.084 57.135 70.084C57.287 70.084 57.407 70.124 57.495 70.204C57.583 70.284 57.627 70.408 57.627 70.576V75.58C57.627 75.74 57.583 75.864 57.495 75.952C57.407 76.04 57.287 76.084 57.135 76.084C56.983 76.084 56.863 76.04 56.775 75.952C56.695 75.864 56.655 75.74 56.655 75.58V73.384H53.475V75.58C53.475 75.74 53.435 75.864 53.355 75.952C53.275 76.04 53.155 76.084 52.995 76.084ZM61.9819 76.108C61.4139 76.108 60.9219 75.984 60.5059 75.736C60.0899 75.488 59.7659 75.14 59.5339 74.692C59.3099 74.236 59.1979 73.7 59.1979 73.084C59.1979 72.62 59.2619 72.204 59.3899 71.836C59.5179 71.46 59.7059 71.14 59.9539 70.876C60.2019 70.612 60.4939 70.412 60.8299 70.276C61.1739 70.132 61.5579 70.06 61.9819 70.06C62.5499 70.06 63.0419 70.184 63.4579 70.432C63.8739 70.68 64.1939 71.032 64.4179 71.488C64.6499 71.936 64.7659 72.468 64.7659 73.084C64.7659 73.548 64.7019 73.964 64.5739 74.332C64.4459 74.7 64.2579 75.02 64.0099 75.292C63.7619 75.556 63.4659 75.76 63.1219 75.904C62.7859 76.04 62.4059 76.108 61.9819 76.108ZM61.9819 75.328C62.3419 75.328 62.6579 75.24 62.9299 75.064C63.2019 74.888 63.4099 74.632 63.5539 74.296C63.7059 73.96 63.7819 73.556 63.7819 73.084C63.7819 72.356 63.6179 71.8 63.2899 71.416C62.9699 71.032 62.5339 70.84 61.9819 70.84C61.6139 70.84 61.2939 70.928 61.0219 71.104C60.7579 71.272 60.5499 71.524 60.3979 71.86C60.2539 72.188 60.1819 72.596 60.1819 73.084C60.1819 73.804 60.3459 74.36 60.6739 74.752C61.0019 75.136 61.4379 75.328 61.9819 75.328ZM68.8268 76.108C68.2428 76.108 67.7388 75.98 67.3148 75.724C66.8908 75.468 66.5628 75.112 66.3308 74.656C66.1068 74.192 65.9948 73.656 65.9948 73.048C65.9948 72.584 66.0588 72.168 66.1868 71.8C66.3148 71.432 66.5028 71.12 66.7508 70.864C66.9988 70.6 67.2948 70.4 67.6388 70.264C67.9908 70.128 68.3868 70.06 68.8268 70.06C69.1148 70.06 69.4148 70.104 69.7268 70.192C70.0388 70.28 70.3228 70.432 70.5788 70.648C70.6588 70.704 70.7108 70.772 70.7348 70.852C70.7588 70.932 70.7588 71.012 70.7348 71.092C70.7108 71.164 70.6708 71.228 70.6148 71.284C70.5588 71.332 70.4868 71.36 70.3988 71.368C70.3188 71.376 70.2348 71.348 70.1468 71.284C69.9388 71.124 69.7268 71.012 69.5108 70.948C69.2948 70.884 69.0868 70.852 68.8868 70.852C68.5748 70.852 68.3028 70.904 68.0708 71.008C67.8388 71.104 67.6428 71.244 67.4828 71.428C67.3228 71.612 67.1988 71.84 67.1108 72.112C67.0308 72.384 66.9908 72.7 66.9908 73.06C66.9908 73.756 67.1548 74.308 67.4828 74.716C67.8108 75.116 68.2788 75.316 68.8868 75.316C69.0868 75.316 69.2908 75.284 69.4988 75.22C69.7148 75.156 69.9308 75.044 70.1468 74.884C70.2348 74.82 70.3188 74.792 70.3988 74.8C70.4788 74.808 70.5468 74.84 70.6028 74.896C70.6588 74.944 70.6948 75.008 70.7108 75.088C70.7348 75.168 70.7348 75.248 70.7108 75.328C70.6868 75.4 70.6348 75.464 70.5548 75.52C70.2988 75.728 70.0188 75.88 69.7148 75.976C69.4108 76.064 69.1148 76.108 68.8268 76.108ZM73.7187 76.084C73.5667 76.084 73.4467 76.04 73.3587 75.952C73.2707 75.864 73.2267 75.74 73.2267 75.58V70.948H71.4747C71.1707 70.948 71.0187 70.816 71.0187 70.552C71.0187 70.432 71.0587 70.34 71.1387 70.276C71.2187 70.204 71.3307 70.168 71.4747 70.168H75.9627C76.2587 70.168 76.4067 70.296 76.4067 70.552C76.4067 70.68 76.3667 70.78 76.2867 70.852C76.2147 70.916 76.1067 70.948 75.9627 70.948H74.1987V75.58C74.1987 75.74 74.1587 75.864 74.0787 75.952C74.0067 76.04 73.8867 76.084 73.7187 76.084ZM77.7907 76.084C77.7027 76.084 77.6227 76.064 77.5507 76.024C77.4867 75.992 77.4347 75.936 77.3947 75.856C77.3627 75.776 77.3467 75.676 77.3467 75.556V70.564C77.3467 70.404 77.3867 70.284 77.4667 70.204C77.5467 70.124 77.6547 70.084 77.7907 70.084C77.9347 70.084 78.0427 70.124 78.1147 70.204C78.1947 70.284 78.2347 70.404 78.2347 70.564V75.076H77.9347L81.4267 70.396C81.4907 70.308 81.5667 70.236 81.6547 70.18C81.7427 70.116 81.8547 70.084 81.9907 70.084C82.0867 70.084 82.1667 70.1 82.2307 70.132C82.2947 70.164 82.3427 70.22 82.3747 70.3C82.4147 70.372 82.4347 70.472 82.4347 70.6V75.604C82.4347 75.756 82.3947 75.876 82.3147 75.964C82.2427 76.044 82.1347 76.084 81.9907 76.084C81.8467 76.084 81.7347 76.044 81.6547 75.964C81.5827 75.876 81.5467 75.756 81.5467 75.604V71.08H81.8467L78.3427 75.772C78.2867 75.852 78.2147 75.924 78.1267 75.988C78.0467 76.052 77.9347 76.084 77.7907 76.084ZM84.7745 73.852C84.6785 73.852 84.5985 73.82 84.5345 73.756C84.4785 73.692 84.4465 73.596 84.4385 73.468L84.1985 68.092C84.1905 67.9 84.2345 67.748 84.3305 67.636C84.4345 67.516 84.5825 67.456 84.7745 67.456C84.9585 67.456 85.0985 67.516 85.1945 67.636C85.2905 67.748 85.3345 67.9 85.3265 68.092L85.0865 73.468C85.0865 73.596 85.0585 73.692 85.0025 73.756C84.9465 73.82 84.8705 73.852 84.7745 73.852ZM84.7745 76.048C84.5745 76.048 84.4145 75.988 84.2945 75.868C84.1745 75.74 84.1145 75.58 84.1145 75.388C84.1145 75.196 84.1745 75.04 84.2945 74.92C84.4145 74.792 84.5745 74.728 84.7745 74.728C84.9745 74.728 85.1305 74.792 85.2425 74.92C85.3625 75.04 85.4225 75.196 85.4225 75.388C85.4225 75.58 85.3625 75.74 85.2425 75.868C85.1305 75.988 84.9745 76.048 84.7745 76.048Z" fill="black"/>
<rect x="12" y="88" width="91" height="24" rx="8" fill="#8D6AE2"/>
<path d="M23.3843 102.865V95.0128H29.416V102.865H28.1377V96.1085H24.6733V102.865H23.3843ZM34.4165 96.8068C35.1219 96.8068 35.6877 97.0646 36.1138 97.5802C36.5435 98.0958 36.7583 98.8621 36.7583 99.879C36.7583 100.552 36.658 101.12 36.4575 101.582C36.2606 102.04 35.9831 102.387 35.625 102.624C35.2705 102.856 34.8569 102.973 34.3843 102.973C34.0835 102.973 33.8221 102.933 33.6001 102.855C33.3781 102.776 33.1883 102.674 33.0308 102.548C32.8732 102.42 32.7407 102.28 32.6333 102.13H32.5581C32.576 102.273 32.5921 102.432 32.6064 102.608C32.6243 102.779 32.6333 102.937 32.6333 103.08V105.503H31.3657V96.9196H32.397L32.5742 97.7413H32.6333C32.7443 97.573 32.8786 97.4173 33.0361 97.274C33.1973 97.1308 33.3906 97.018 33.6162 96.9357C33.8454 96.8497 34.1121 96.8068 34.4165 96.8068ZM34.0781 97.838C33.7308 97.838 33.4515 97.9078 33.2402 98.0475C33.0326 98.1836 32.8804 98.3894 32.7837 98.6652C32.6906 98.9409 32.6405 99.2864 32.6333 99.7018V99.879C32.6333 100.319 32.6781 100.694 32.7676 101.002C32.8607 101.306 33.0129 101.539 33.2241 101.7C33.439 101.857 33.729 101.936 34.0942 101.936C34.4022 101.936 34.6564 101.852 34.8569 101.684C35.061 101.515 35.2132 101.276 35.3135 100.964C35.4137 100.652 35.4639 100.285 35.4639 99.8629C35.4639 99.222 35.3493 98.7242 35.1201 98.3698C34.8945 98.0153 34.5472 97.838 34.0781 97.838ZM43.4829 99.879C43.4829 100.373 43.4185 100.812 43.2896 101.195C43.1606 101.578 42.9727 101.902 42.7256 102.167C42.4785 102.429 42.1813 102.629 41.834 102.769C41.4867 102.905 41.0946 102.973 40.6577 102.973C40.2495 102.973 39.8753 102.905 39.5352 102.769C39.195 102.629 38.8996 102.429 38.6489 102.167C38.4019 101.902 38.2103 101.578 38.0742 101.195C37.9382 100.812 37.8701 100.373 37.8701 99.879C37.8701 99.2238 37.9829 98.6687 38.2085 98.214C38.4377 97.7557 38.7635 97.4065 39.186 97.1666C39.6086 96.9267 40.1117 96.8068 40.6953 96.8068C41.2432 96.8068 41.7266 96.9267 42.1455 97.1666C42.5645 97.4065 42.8921 97.7557 43.1284 98.214C43.3647 98.6723 43.4829 99.2273 43.4829 99.879ZM39.1699 99.879C39.1699 100.312 39.2218 100.683 39.3257 100.991C39.4331 101.299 39.5978 101.535 39.8198 101.7C40.0418 101.861 40.3283 101.942 40.6792 101.942C41.0301 101.942 41.3166 101.861 41.5386 101.7C41.7606 101.535 41.9235 101.299 42.0273 100.991C42.1312 100.683 42.1831 100.312 42.1831 99.879C42.1831 99.4458 42.1312 99.0787 42.0273 98.778C41.9235 98.4736 41.7606 98.2426 41.5386 98.0851C41.3166 97.924 41.0283 97.8434 40.6738 97.8434C40.151 97.8434 39.7697 98.0188 39.5298 98.3698C39.2899 98.7207 39.1699 99.2238 39.1699 99.879ZM49.7886 96.9196V101.888H50.6479V104.96H49.4824V102.865H45.3789V104.96H44.2134V101.888H44.6968C44.9976 101.451 45.2482 100.964 45.4487 100.427C45.6528 99.8898 45.8104 99.324 45.9214 98.7296C46.036 98.1316 46.1076 97.5283 46.1362 96.9196H49.7886ZM48.5371 97.8864H47.2212C47.1782 98.3698 47.1048 98.8514 47.001 99.3312C46.8971 99.8074 46.7629 100.264 46.5981 100.701C46.437 101.134 46.2437 101.53 46.0181 101.888H48.5371V97.8864ZM57.0181 99.879C57.0181 100.373 56.9536 100.812 56.8247 101.195C56.6958 101.578 56.5078 101.902 56.2607 102.167C56.0137 102.429 55.7165 102.629 55.3691 102.769C55.0218 102.905 54.6297 102.973 54.1929 102.973C53.7847 102.973 53.4105 102.905 53.0703 102.769C52.7301 102.629 52.4347 102.429 52.1841 102.167C51.937 101.902 51.7454 101.578 51.6094 101.195C51.4733 100.812 51.4053 100.373 51.4053 99.879C51.4053 99.2238 51.5181 98.6687 51.7437 98.214C51.9728 97.7557 52.2987 97.4065 52.7212 97.1666C53.1437 96.9267 53.6468 96.8068 54.2305 96.8068C54.7783 96.8068 55.2617 96.9267 55.6807 97.1666C56.0996 97.4065 56.4272 97.7557 56.6636 98.214C56.8999 98.6723 57.0181 99.2273 57.0181 99.879ZM52.7051 99.879C52.7051 100.312 52.757 100.683 52.8608 100.991C52.9683 101.299 53.133 101.535 53.355 101.7C53.577 101.861 53.8634 101.942 54.2144 101.942C54.5653 101.942 54.8517 101.861 55.0737 101.7C55.2957 101.535 55.4587 101.299 55.5625 100.991C55.6663 100.683 55.7183 100.312 55.7183 99.879C55.7183 99.4458 55.6663 99.0787 55.5625 98.778C55.4587 98.4736 55.2957 98.2426 55.0737 98.0851C54.8517 97.924 54.5635 97.8434 54.209 97.8434C53.6862 97.8434 53.3049 98.0188 53.0649 98.3698C52.825 98.7207 52.7051 99.2238 52.7051 99.879ZM63.3613 102.865H62.0884V97.9078H60.4395C60.3678 98.8102 60.2783 99.5818 60.1709 100.223C60.0635 100.864 59.9292 101.387 59.7681 101.791C59.6069 102.192 59.4082 102.486 59.1719 102.672C58.9355 102.858 58.6509 102.951 58.3179 102.951C58.1711 102.951 58.0386 102.941 57.9204 102.919C57.8022 102.901 57.6966 102.873 57.6035 102.833V101.839C57.6644 101.861 57.7306 101.879 57.8022 101.893C57.8739 101.908 57.9473 101.915 58.0225 101.915C58.1549 101.915 58.2767 101.861 58.3877 101.754C58.5023 101.643 58.6079 101.469 58.7046 101.233C58.8013 100.996 58.889 100.685 58.9678 100.298C59.0465 99.9077 59.1182 99.435 59.1826 98.88C59.2471 98.3214 59.3044 97.6679 59.3545 96.9196H63.3613V102.865ZM72.8843 96.9196L70.5532 99.7877L73.0938 102.865H71.708L69.2749 99.8468V102.865H68.0986V99.8468L65.6655 102.865H64.2798L66.8203 99.7877L64.4893 96.9196H65.8267L68.0986 99.8038V96.9196H69.2749V99.8038L71.5522 96.9196H72.8843ZM75.2368 96.9196V99.9542C75.2368 100.051 75.2332 100.174 75.2261 100.325C75.2225 100.472 75.2153 100.626 75.2046 100.787C75.1938 100.944 75.1831 101.089 75.1724 101.222C75.1616 101.354 75.1527 101.453 75.1455 101.517L78.1372 96.9196H79.6733V102.865H78.4648V99.8629C78.4648 99.7054 78.4684 99.5227 78.4756 99.3151C78.4863 99.1074 78.4971 98.9069 78.5078 98.7135C78.5221 98.5201 78.5311 98.3733 78.5347 98.2731L75.5537 102.865H74.0229V96.9196H75.2368ZM85.979 97.9132H84.0239V102.865H82.7671V97.9132H80.8228V96.9196H85.979V97.9132ZM88.396 99.2936H89.873C90.4316 99.2936 90.8936 99.358 91.2588 99.4869C91.6276 99.6123 91.9033 99.802 92.0859 100.056C92.2686 100.311 92.3599 100.629 92.3599 101.012C92.3599 101.388 92.2739 101.716 92.1021 101.995C91.9302 102.271 91.6616 102.486 91.2964 102.64C90.9347 102.79 90.4621 102.865 89.8784 102.865H87.1284V96.9196H88.396V99.2936ZM91.0923 101.045C91.0923 100.747 90.9813 100.538 90.7593 100.416C90.5373 100.291 90.2204 100.228 89.8086 100.228H88.396V101.936H89.8193C90.1953 101.936 90.5015 101.868 90.7378 101.732C90.9741 101.592 91.0923 101.363 91.0923 101.045Z" fill="white"/>
<path d="M248.458 19.6546L195.136 43.3123C193.633 43.9792 192.952 45.7445 193.615 47.2553L211.09 87.0475C211.406 87.7718 211.998 88.3402 212.734 88.6271C213.47 88.9139 214.29 88.8953 215.013 88.5756L249.87 73.1104C252.058 74.2698 254.552 75.5896 256.365 76.548C257.203 76.991 258.116 76.1182 257.734 75.2479L255.666 70.5389L268.335 64.9178C269.838 64.251 270.519 62.4857 269.855 60.9748L252.38 21.1827C252.065 20.4584 251.473 19.8899 250.737 19.6031C250 19.3163 249.18 19.3348 248.458 19.6546Z" fill="#AD66FF" stroke="#906EE3" stroke-width="0.4" stroke-linecap="round" stroke-linejoin="round"/>
<path d="M215.19 57.1371L213.254 60.3352" stroke="#1B1B1B" stroke-width="0.4" stroke-linecap="round" stroke-linejoin="round"/>
<path d="M257.877 60.0629C257.326 61.3657 256.582 62.578 255.67 63.6588" stroke="#1B1B1B" stroke-width="0.4" stroke-linecap="round" stroke-linejoin="round"/>
<path d="M267.372 27.4296L266.986 27.7414L266.781 27.8332L268.198 29.8046L268.785 29.0673" fill="#1B1B1B"/>
<path d="M267.372 27.4296L266.986 27.7414L266.781 27.8332L268.198 29.8046L268.785 29.0673" stroke="#1B1B1B" stroke-width="0.4" stroke-linecap="round" stroke-linejoin="round"/>
<path d="M267.129 27.6933L266.986 27.7412L266.781 27.833L270.476 19.1556H270.695L271.241 21.0339" fill="#1B1B1B"/>
<path d="M267.129 27.6933L266.986 27.7412L266.781 27.833L270.476 19.1556H270.695L271.241 21.0339" stroke="#1B1B1B" stroke-width="0.4" stroke-linecap="round" stroke-linejoin="round"/>
<path d="M266.986 27.7412L269.238 30.9408L272.947 22.3552L270.696 19.1556L266.986 27.7412Z" fill="#1B1B1B"/>
<mask id="mask0_184_9686" style="mask-type:luminance" maskUnits="userSpaceOnUse" x="266" y="19" width="7" height="12">
<path fill-rule="evenodd" clip-rule="evenodd" d="M266.986 27.7412L269.238 30.9408L272.947 22.3552L270.696 19.1556L266.986 27.7412Z" fill="white"/>
</mask>
<g mask="url(#mask0_184_9686)">
<path d="M268.785 22.8767C270.391 22.5009 271.537 22.6432 271.537 22.6432L271.086 24.7207C271.086 24.7207 269.973 25.947 269.966 26.0246C269.959 26.1022 268.522 27.5303 268.522 27.5303C268.522 27.5303 267.79 27.833 267.286 27.833C266.781 27.833 266.607 27.1888 266.607 27.1888L267.783 24.5965" fill="#1B1B1B"/>
<path d="M268.785 22.8767C270.391 22.5009 271.537 22.6432 271.537 22.6432L271.086 24.7207C271.086 24.7207 269.973 25.947 269.966 26.0246C269.959 26.1022 268.522 27.5303 268.522 27.5303C268.522 27.5303 267.79 27.833 267.286 27.833C266.781 27.833 266.607 27.1888 266.607 27.1888L267.783 24.5965" stroke="#1B1B1B" stroke-width="0.4" stroke-linecap="round" stroke-linejoin="round"/>
</g>
<path fill-rule="evenodd" clip-rule="evenodd" d="M266.986 27.7412L269.238 30.9408L272.947 22.3552L270.696 19.1556L266.986 27.7412V27.7412Z" stroke="#1B1B1B" stroke-width="0.4" stroke-linecap="round" stroke-linejoin="round"/>
<path d="M267.921 37.7595C267.921 37.7595 270.585 31.6646 270.84 30.9407C271.094 30.2169 272.122 25.683 272.122 25.683C272.122 25.683 271.962 22.6802 271.538 22.6431C271.114 22.606 268.526 22.9772 268.314 22.8658C268.102 22.7545 267.725 23.7035 268.446 24.0376C269.167 24.3717 269.73 24.2393 269.73 24.2393C269.73 24.2393 267.783 25.1356 267.581 25.2639C267.079 25.5821 266.871 26.9714 267.365 26.7386C267.679 26.5904 268.357 26.3923 268.357 26.3923C268.357 26.3923 267.064 27.4873 267.319 27.9649C267.674 28.6324 268.539 28.384 268.539 28.384C268.496 28.8308 266.006 32.6529 266.006 32.6529L267.921 37.7595Z" fill="white"/>
<mask id="mask1_184_9686" style="mask-type:luminance" maskUnits="userSpaceOnUse" x="266" y="22" width="7" height="16">
<path fill-rule="evenodd" clip-rule="evenodd" d="M267.921 37.7595C267.921 37.7595 270.585 31.6646 270.84 30.9407C271.094 30.2169 272.122 25.683 272.122 25.683C272.122 25.683 271.962 22.6802 271.538 22.6431C271.114 22.606 268.526 22.9772 268.314 22.8658C268.102 22.7545 267.725 23.7035 268.446 24.0376C269.167 24.3717 269.73 24.2393 269.73 24.2393C269.73 24.2393 267.783 25.1356 267.581 25.2639C267.079 25.5821 266.871 26.9714 267.365 26.7386C267.679 26.5904 268.357 26.3923 268.357 26.3923C268.357 26.3923 267.064 27.4873 267.319 27.9649C267.674 28.6324 268.539 28.384 268.539 28.384C268.496 28.8308 266.006 32.6529 266.006 32.6529L267.921 37.7595Z" fill="white"/>
</mask>
<g mask="url(#mask1_184_9686)">
<path d="M267.828 29.7503C268.199 28.9276 270.5 30.5885 271.843 31.6286C273.187 32.6686 269.867 32.9791 269.867 32.9791L268.708 32.5289" fill="white"/>
</g>
<path fill-rule="evenodd" clip-rule="evenodd" d="M267.921 37.7595C267.921 37.7595 270.585 31.6646 270.84 30.9407C271.094 30.2169 272.122 25.683 272.122 25.683C272.122 25.683 271.962 22.6802 271.538 22.6431C271.114 22.606 268.526 22.9772 268.314 22.8658C268.102 22.7545 267.725 23.7035 268.446 24.0376C269.167 24.3717 269.73 24.2393 269.73 24.2393C269.73 24.2393 267.783 25.1356 267.581 25.2639C267.079 25.5821 266.871 26.9714 267.365 26.7386C267.679 26.5904 268.357 26.3923 268.357 26.3923C268.357 26.3923 267.064 27.4873 267.319 27.9649C267.674 28.6324 268.539 28.384 268.539 28.384C268.496 28.8308 266.006 32.6529 266.006 32.6529L267.921 37.7595Z" stroke="#1B1B1B" stroke-width="0.4" stroke-linecap="round" stroke-linejoin="round"/>
<path d="M235.209 78.6698L238.921 100.822L234.358 102.521L227.695 77.8821L235.209 78.6698Z" fill="white"/>
<mask id="mask2_184_9686" style="mask-type:luminance" maskUnits="userSpaceOnUse" x="227" y="77" width="12" height="26">
<path fill-rule="evenodd" clip-rule="evenodd" d="M235.209 78.6698L238.921 100.822L234.358 102.521L227.695 77.8821L235.209 78.6698Z" fill="white"/>
</mask>
<g mask="url(#mask2_184_9686)">
<path d="M230.155 86.9232C228.646 87.899 238.366 90.9106 238.366 90.9106L236.911 86.5316" fill="white"/>
</g>
<path fill-rule="evenodd" clip-rule="evenodd" d="M235.209 78.6698L238.921 100.822L234.358 102.521L227.695 77.8821L235.209 78.6698V78.6698Z" stroke="#1B1B1B" stroke-width="0.4" stroke-linecap="round" stroke-linejoin="round"/>
<path d="M238.464 97.7577C238.464 97.7577 236.574 100.358 233.481 99.0863C233.481 99.0863 234.259 102.854 231.147 104.382C225.706 107.053 228.326 109 228.326 109L240.323 103.211C241.277 102.835 238.464 97.7577 238.464 97.7577Z" fill="#1B1B1B"/>
<mask id="mask3_184_9686" style="mask-type:luminance" maskUnits="userSpaceOnUse" x="227" y="97" width="14" height="12">
<path fill-rule="evenodd" clip-rule="evenodd" d="M238.464 97.7577C238.464 97.7577 236.574 100.358 233.481 99.0863C233.481 99.0863 234.259 102.854 231.147 104.382C225.706 107.053 228.326 109 228.326 109L240.323 103.211C241.277 102.835 238.464 97.7577 238.464 97.7577Z" fill="white"/>
</mask>
<g mask="url(#mask3_184_9686)">
<path d="M226.473 108.505L242.792 100.628L242.265 104.316L229.21 111.415" fill="#1B1B1B"/>
<path d="M226.473 108.505L242.792 100.628L242.265 104.316L229.21 111.415" stroke="#1B1B1B" stroke-width="0.4" stroke-linecap="round" stroke-linejoin="round"/>
</g>
<path fill-rule="evenodd" clip-rule="evenodd" d="M238.464 97.7577C238.464 97.7577 236.574 100.358 233.481 99.0863C233.481 99.0863 234.259 102.854 231.147 104.382C225.706 107.053 228.326 109 228.326 109L240.323 103.211C241.277 102.835 238.464 97.7577 238.464 97.7577Z" stroke="#1B1B1B" stroke-width="0.4" stroke-linecap="round" stroke-linejoin="round"/>
<path d="M229.8 86.9261C237.946 89.9719 241.263 86.1631 241.263 86.1631L233.165 58.7784L222.316 63.1345L229.8 86.9261Z" fill="white" stroke="#1B1B1B" stroke-width="0.4" stroke-linecap="round" stroke-linejoin="round"/>
<path d="M231.809 68.0968L250.309 80.3951L248.431 84.951L226.131 73.1618L231.809 68.0968Z" fill="white"/>
<mask id="mask4_184_9686" style="mask-type:luminance" maskUnits="userSpaceOnUse" x="226" y="68" width="25" height="17">
<path fill-rule="evenodd" clip-rule="evenodd" d="M231.809 68.0968L250.309 80.3951L248.431 84.951L226.131 73.1618L231.809 68.0968Z" fill="white"/>
</mask>
<g mask="url(#mask4_184_9686)">
<path d="M239.635 81.1151C239.313 82.9035 246.797 77.1144 246.797 77.1144L243.947 75.8131" fill="white"/>
</g>
<path fill-rule="evenodd" clip-rule="evenodd" d="M231.809 68.0968L250.309 80.3951L248.431 84.951L226.131 73.1618L231.809 68.0968V68.0968Z" stroke="#1B1B1B" stroke-width="0.4" stroke-linecap="round" stroke-linejoin="round"/>
<path d="M247.79 78.6514C247.79 78.6514 248.38 81.8284 245.359 83.269C245.359 83.269 247.543 84.7485 246.529 88.1069C244.755 93.9793 248.083 93.0658 248.083 93.0658L251.832 80.7702C252.209 79.8026 247.79 78.6514 247.79 78.6514Z" fill="#1B1B1B"/>
<mask id="mask5_184_9686" style="mask-type:luminance" maskUnits="userSpaceOnUse" x="245" y="78" width="7" height="16">
<path fill-rule="evenodd" clip-rule="evenodd" d="M247.79 78.6514C247.79 78.6514 248.38 81.8284 245.359 83.269C245.359 83.269 247.543 84.7485 246.529 88.1069C244.755 93.9793 248.083 93.0658 248.083 93.0658L251.832 80.7702C252.209 79.8026 247.79 78.6514 247.79 78.6514Z" fill="white"/>
</mask>
<g mask="url(#mask5_184_9686)">
<path d="M246.52 93.8217L251.358 78.5034L254.1 82.0353L252.442 89.8044" fill="#1B1B1B"/>
<path d="M246.52 93.8217L251.358 78.5034L254.1 82.0353L252.442 89.8044" stroke="#1B1B1B" stroke-width="0.4" stroke-linecap="round" stroke-linejoin="round"/>
</g>
<path fill-rule="evenodd" clip-rule="evenodd" d="M247.79 78.6514C247.79 78.6514 248.38 81.8284 245.359 83.269C245.359 83.269 247.543 84.7485 246.529 88.1069C244.755 93.9793 248.083 93.0658 248.083 93.0658L251.832 80.7702C252.209 79.8026 247.79 78.6514 247.79 78.6514Z" stroke="#1B1B1B" stroke-width="0.4" stroke-linecap="round" stroke-linejoin="round"/>
<path d="M225.857 71.362C226.135 71.2093 226.388 70.9994 226.686 70.9099C252.855 63.0584 260.908 60.2231 246.95 43.1718L239.343 45.9544L238.684 51.507L220.473 61.0978L226.412 71.0586" fill="white"/>
<mask id="mask6_184_9686" style="mask-type:luminance" maskUnits="userSpaceOnUse" x="220" y="43" width="34" height="29">
<path fill-rule="evenodd" clip-rule="evenodd" d="M225.857 71.362C226.135 71.2093 226.388 70.9994 226.686 70.9099C252.855 63.0584 260.908 60.2231 246.95 43.1718L239.343 45.9544L238.684 51.507L220.473 61.0978L226.412 71.0586" fill="white"/>
</mask>
<g mask="url(#mask6_184_9686)">
<path d="M227.346 64.2813C230.272 58.0677 236.124 68.7102 247.242 64.6779C258.361 60.6457 239.83 70.8916 239.83 70.8916L228.061 68.0969" fill="white"/>
<path d="M238.53 49.9372C236.906 51.4808 252.022 50.3575 254.265 53.436C256.509 56.5144 254.794 48.5821 254.794 48.5821L248.099 46.0347" fill="white"/>
</g>
<path d="M225.857 71.362C226.135 71.2093 226.388 70.9994 226.686 70.9099C252.855 63.0584 260.908 60.2231 246.95 43.1718L239.343 45.9544L238.684 51.507L220.473 61.0978L226.412 71.0586" stroke="#1B1B1B" stroke-width="0.4" stroke-linecap="round" stroke-linejoin="round"/>
<path d="M228.954 48.9171C228.954 48.9171 223.127 51.8308 222.57 51.8985C222.013 51.9662 218.859 52.2515 218.382 52.353C217.904 52.4546 213.843 52.1951 213.764 52.0936C213.684 51.992 212.147 52.5478 214.255 53.2926C216.363 54.0374 219.257 54.1473 219.336 54.4859C219.416 54.8244 217.387 55.3331 217.347 55.7051C217.308 56.077 219.018 55.8993 219.018 55.8993C219.018 55.8993 222.081 55.2819 222.399 55.1122C222.717 54.9425 230.516 52.8129 230.516 52.8129L228.954 48.9171Z" fill="white"/>
<mask id="mask7_184_9686" style="mask-type:luminance" maskUnits="userSpaceOnUse" x="213" y="48" width="18" height="8">
<path fill-rule="evenodd" clip-rule="evenodd" d="M228.954 48.9171C228.954 48.9171 223.127 51.8308 222.57 51.8985C222.013 51.9662 218.859 52.2515 218.382 52.353C217.904 52.4546 213.843 52.1951 213.764 52.0936C213.684 51.992 212.147 52.5478 214.255 53.2926C216.363 54.0374 219.257 54.1473 219.336 54.4859C219.416 54.8244 217.387 55.3331 217.347 55.7051C217.308 56.077 219.018 55.8993 219.018 55.8993C219.018 55.8993 222.081 55.2819 222.399 55.1122C222.717 54.9425 230.516 52.8129 230.516 52.8129L228.954 48.9171Z" fill="white"/>
</mask>
<g mask="url(#mask7_184_9686)">
<path d="M224.369 51.144C222.815 50.9382 224.787 53.5336 224.185 55.3943C223.69 56.9232 226.655 55.1148 226.655 55.1148L226.748 52.8795" fill="white"/>
</g>
<path fill-rule="evenodd" clip-rule="evenodd" d="M228.954 48.9171C228.954 48.9171 223.127 51.8308 222.57 51.8985C222.013 51.9662 218.859 52.2515 218.382 52.353C217.904 52.4546 213.843 52.1951 213.764 52.0936C213.684 51.992 212.147 52.5478 214.255 53.2926C216.363 54.0374 219.257 54.1473 219.336 54.4859C219.416 54.8244 217.387 55.3331 217.347 55.7051C217.308 56.077 219.018 55.8993 219.018 55.8993C219.018 55.8993 222.081 55.2819 222.399 55.1122C222.717 54.9425 230.516 52.8129 230.516 52.8129L228.954 48.9171Z" stroke="#1B1B1B" stroke-width="0.4" stroke-linecap="round" stroke-linejoin="round"/>
<path d="M223.946 50.613C223.13 51.5101 227.381 57.2802 227.381 57.2802C227.381 57.2802 235.967 53.1924 239.289 49.5266C242.61 45.8608 245.061 32.2351 245.061 32.2351C245.061 32.2351 242.657 31.2789 241.939 31.3343C238.337 31.6122 234.054 44.3465 234.054 44.3465L223.946 50.613Z" fill="white" stroke="#1B1B1B" stroke-width="0.4" stroke-linecap="round" stroke-linejoin="round"/>
<path d="M239.981 33.9358C239.232 35.4902 238.763 37.5277 239.968 39.3735C242.332 42.9947 236.248 50.1182 236.248 50.1182C240.894 50.5823 251.835 49.1186 251.835 49.1186C249.386 41.8762 255.128 31.8272 254.719 31.6291C250.046 29.3659 241.682 31.3926 241.682 31.3926" fill="white"/>
<mask id="mask8_184_9686" style="mask-type:luminance" maskUnits="userSpaceOnUse" x="236" y="30" width="19" height="21">
<path fill-rule="evenodd" clip-rule="evenodd" d="M239.981 33.9358C239.232 35.4902 238.763 37.5277 239.968 39.3735C242.332 42.9947 236.248 50.1182 236.248 50.1182C240.894 50.5823 251.835 49.1186 251.835 49.1186C249.386 41.8762 255.128 31.8272 254.719 31.6291C250.046 29.3659 241.682 31.3926 241.682 31.3926" fill="white"/>
</mask>
<g mask="url(#mask8_184_9686)">
<path d="M244.044 29.2225C239.04 35.4317 248.08 37.3638 253.127 29.755L244.044 29.2225Z" fill="white"/>
<path d="M244.044 29.2225C239.04 35.4317 248.08 37.3638 253.127 29.755" stroke="#1B1B1B" stroke-width="0.4" stroke-linecap="round" stroke-linejoin="round"/>
<path d="M244.591 28.6717C239.588 34.8809 248.3 34.42 253.674 29.2042L244.591 28.6717Z" fill="white"/>
<path d="M244.591 28.6717C239.588 34.8809 248.3 34.42 253.674 29.2042" stroke="#1B1B1B" stroke-width="0.4" stroke-linecap="round" stroke-linejoin="round"/>
</g>
<path d="M239.981 33.9358C239.232 35.4902 238.763 37.5277 239.968 39.3735C242.332 42.9947 236.248 50.1182 236.248 50.1182C240.894 50.5823 251.835 49.1186 251.835 49.1186C249.386 41.8762 255.128 31.8272 254.719 31.6291C250.046 29.3659 241.682 31.3926 241.682 31.3926" stroke="#1B1B1B" stroke-width="0.4" stroke-linecap="round" stroke-linejoin="round"/>
<path d="M220.752 60.9504C208.579 66.2391 237.095 83.8775 237.095 83.8775C245.061 81.6783 243.86 75.8068 243.86 75.8068C243.86 75.8068 235.778 66.839 228.585 62.6797" fill="white"/>
<path d="M220.752 60.9504C208.579 66.2391 237.095 83.8775 237.095 83.8775C245.061 81.6783 243.86 75.8068 243.86 75.8068C243.86 75.8068 235.778 66.839 228.585 62.6797" stroke="#1B1B1B" stroke-width="0.4" stroke-linecap="round" stroke-linejoin="round"/>
<path d="M254.589 31.5683C255.921 32.0602 261.555 36.9041 261.555 36.9041L267.858 29.4978C271.803 31.8442 271.133 35.742 271.133 35.742C271.133 35.742 264.245 47.0428 261.604 47.3222C258.144 47.6883 250.693 38.7721 249.236 36.9832" fill="white"/>
<path d="M254.589 31.5683C255.921 32.0602 261.555 36.9041 261.555 36.9041L267.858 29.4978C271.803 31.8442 271.133 35.742 271.133 35.742C271.133 35.742 264.245 47.0428 261.604 47.3222C258.144 47.6883 250.693 38.7721 249.236 36.9832" stroke="#1B1B1B" stroke-width="0.4" stroke-linecap="round" stroke-linejoin="round"/>
<path d="M245.324 31.4663L245.941 25.1021L249.847 24.9751C249.156 26.3157 249.816 29.5062 250.226 30.9215" fill="white"/>
<mask id="mask9_184_9686" style="mask-type:luminance" maskUnits="userSpaceOnUse" x="245" y="24" width="6" height="8">
<path fill-rule="evenodd" clip-rule="evenodd" d="M245.324 31.4663L245.941 25.1021L249.847 24.9751C249.156 26.3157 249.816 29.5062 250.226 30.9215" fill="white"/>
</mask>
<g mask="url(#mask9_184_9686)">
<path d="M254.362 32.4053C250.514 30.7906 249.028 29.8298 247.931 26.8178C246.571 23.0828 250.779 25.3833 250.779 25.3833C250.779 25.3833 251.193 25.3713 251.388 25.7422C251.583 26.113 253.125 29.8841 253.125 29.8841" fill="white"/>
</g>
<path d="M245.324 31.4663L245.941 25.1021L249.847 24.9751C249.156 26.3157 249.816 29.5062 250.226 30.9215" stroke="#1B1B1B" stroke-width="0.4" stroke-linecap="round" stroke-linejoin="round"/>
<ellipse cx="238.679" cy="14.0206" rx="8.87121" ry="7.37487" transform="rotate(-20.5606 238.679 14.0206)" fill="#1B1B1B" stroke="#1B1B1B" stroke-width="0.4" stroke-linecap="round" stroke-linejoin="round"/>
<ellipse cx="247.278" cy="21.9201" rx="5.4216" ry="4.48025" transform="rotate(-20.5447 247.278 21.9201)" fill="#1B1B1B" stroke="#1B1B1B" stroke-width="0.4" stroke-linecap="round" stroke-linejoin="round"/>
<path d="M249.739 18.8623C256.271 25.765 250.658 29.5444 247.428 26.8743L245.781 23.1305L249.739 18.8623Z" fill="white"/>
<mask id="mask10_184_9686" style="mask-type:luminance" maskUnits="userSpaceOnUse" x="245" y="18" width="8" height="10">
<path fill-rule="evenodd" clip-rule="evenodd" d="M249.739 18.8623C256.271 25.765 250.658 29.5444 247.428 26.8743L245.781 23.1305L249.739 18.8623Z" fill="white"/>
</mask>
<g mask="url(#mask10_184_9686)">
<path d="M252.1 23.5428C252.18 23.5536 252.261 23.532 252.326 23.4828C252.39 23.4337 252.432 23.3609 252.443 23.2806L252.512 22.768C252.535 22.6008 252.418 22.4465 252.251 22.4231C252.171 22.4123 252.09 22.4339 252.025 22.4831C251.961 22.5323 251.919 22.605 251.908 22.6853L251.839 23.198C251.816 23.3652 251.933 23.5195 252.1 23.5428Z" fill="#1B1B1B"/>
<path d="M251.318 23.1771C251.142 23.7985 251.088 23.981 251.088 23.981C252.036 24.452 250.736 24.8132 250.736 24.8132" stroke="#1B1B1B" stroke-width="0.4" stroke-linecap="round" stroke-linejoin="round"/>
<path d="M250.091 24.6475C250.04 24.8648 250.149 25.0879 250.352 25.1805" stroke="#1B1B1B" stroke-width="0.4" stroke-linecap="round" stroke-linejoin="round"/>
<path d="M250.176 23.1917C250.256 23.2025 250.337 23.181 250.402 23.1318C250.466 23.0826 250.508 23.0098 250.519 22.9295L250.588 22.4169C250.611 22.2497 250.495 22.0954 250.327 22.0721C250.247 22.0613 250.166 22.0828 250.102 22.132C250.037 22.1812 249.995 22.254 249.984 22.3343L249.915 22.8469C249.892 23.0141 250.009 23.1684 250.176 23.1917Z" fill="#1B1B1B"/>
<path d="M252.423 21.7181C253.015 21.9831 252.799 22.2975 252.418 22.1561C252.038 22.0147 252.036 21.545 252.423 21.7181Z" fill="#1B1B1B"/>
<path d="M250.445 21.3354C249.804 21.4318 249.885 21.7603 250.289 21.7263C250.694 21.6924 250.863 21.2724 250.445 21.3354Z" fill="#1B1B1B"/>
</g>
<path fill-rule="evenodd" clip-rule="evenodd" d="M249.739 18.8623C256.271 25.765 250.658 29.5444 247.428 26.8743L245.781 23.1305L249.739 18.8623Z" stroke="#1B1B1B" stroke-width="0.4" stroke-linecap="round" stroke-linejoin="round"/>
<path d="M246.471 24.9143L244.594 22.9202L247.639 18.3736L249.271 18.2746C249.271 18.2746 249.829 17.8761 250.036 18.2746" fill="#1B1B1B"/>
<path d="M246.471 24.9143L244.594 22.9202L247.639 18.3736L249.271 18.2746C249.271 18.2746 249.829 17.8761 250.036 18.2746" stroke="#1B1B1B" stroke-width="0.4" stroke-linecap="round" stroke-linejoin="round"/>
<path d="M250.036 18.2748C250.754 19.6552 250.991 22.5775 246.471 24.9145L250.036 18.2748Z" fill="#1B1B1B"/>
<path d="M250.036 18.2748C250.754 19.6552 250.991 22.5775 246.471 24.9145" stroke="#1B1B1B" stroke-width="0.4" stroke-linecap="round" stroke-linejoin="round"/>
<path d="M247.901 24.3417C243.478 23.3585 244.665 26.9363 247.648 26.9711L247.901 24.3417Z" fill="white"/>
<path d="M247.901 24.3417C243.478 23.3585 244.665 26.9363 247.648 26.9711" stroke="#1B1B1B" stroke-width="0.4" stroke-linecap="round" stroke-linejoin="round"/>
<ellipse cx="246.244" cy="26.9711" rx="0.874717" ry="0.879215" fill="#1B1B1B" stroke="#1B1B1B" stroke-width="0.4" stroke-linecap="round" stroke-linejoin="round"/>
<path d="M204.614 68.9737L203.276 68.9569L202.097 68.942C201.531 68.9334 201.08 68.4679 201.088 67.9021C201.091 67.6304 201.201 67.3709 201.395 67.1807C201.589 66.9905 201.851 66.8851 202.123 66.8879L204.639 66.9195C205.205 66.9281 205.657 67.3937 205.648 67.9595C205.645 68.2312 205.535 68.4907 205.341 68.6809C205.147 68.8711 204.885 68.9764 204.614 68.9737Z" fill="white" stroke="#1B1B1B" stroke-width="0.4" stroke-linecap="round" stroke-linejoin="round"/>
<path d="M211.448 75.541C210.859 76.7637 209.562 77.3561 208.552 76.864L199.697 72.5514C198.687 72.0594 198.346 70.6693 198.935 69.4466C199.525 68.2238 200.822 67.6315 201.832 68.1235L203.337 68.8567L210.686 72.4361C211.697 72.9282 212.038 74.3183 211.448 75.541Z" fill="white"/>
<mask id="mask11_184_9686" style="mask-type:luminance" maskUnits="userSpaceOnUse" x="198" y="67" width="14" height="11">
<path fill-rule="evenodd" clip-rule="evenodd" d="M211.448 75.541C210.859 76.7637 209.562 77.3561 208.552 76.864L199.697 72.5514C198.687 72.0594 198.346 70.6693 198.935 69.4466C199.525 68.2238 200.822 67.6315 201.832 68.1235L203.337 68.8567L210.686 72.4361C211.697 72.9282 212.038 74.3183 211.448 75.541Z" fill="white"/>
</mask>
<g mask="url(#mask11_184_9686)">
<path d="M206.493 68.0609C196.937 69.8702 207.155 75.9695 207.155 75.9695L199.223 77.821L195.586 71.5199L202.569 65.8129" fill="white"/>
</g>
<path fill-rule="evenodd" clip-rule="evenodd" d="M211.448 75.541V75.541C210.859 76.7637 209.562 77.3561 208.552 76.864L199.697 72.5514C198.687 72.0594 198.346 70.6693 198.935 69.4466V69.4466C199.525 68.2238 200.822 67.6315 201.832 68.1235L203.337 68.8567L210.686 72.4361C211.697 72.9282 212.038 74.3183 211.448 75.541Z" stroke="#1B1B1B" stroke-width="0.4" stroke-linecap="round" stroke-linejoin="round"/>
<path d="M193.906 66.8278L193.355 68.2527C193.278 68.4553 193.123 68.6186 192.924 68.7065C192.726 68.7943 192.5 68.7994 192.298 68.7207L191.916 68.5715C191.495 68.4057 191.287 67.9308 191.45 67.5088L191.552 67.2457L192.001 66.0839C192.079 65.8813 192.234 65.718 192.433 65.6302C192.631 65.5423 192.856 65.5372 193.058 65.6159L193.441 65.7652C193.862 65.9309 194.07 66.4058 193.906 66.8278Z" fill="white" stroke="#1B1B1B" stroke-width="0.4" stroke-linecap="round" stroke-linejoin="round"/>
<ellipse cx="205.632" cy="48.4548" rx="3.80601" ry="12.9562" transform="rotate(-64.0098 205.632 48.4548)" fill="url(#paint1_linear_184_9686)"/>
<path d="M194.038 62.707C193.495 65.0466 192.639 67.3025 191.494 69.4139C192.396 69.9415 193.36 70.4579 194.372 70.951C196.249 71.8652 198.085 72.5978 199.767 73.1305C200.86 71.0909 202.055 69.1075 203.347 67.1878C201.651 66.6178 199.994 65.937 198.388 65.1496C196.89 64.4238 195.438 63.6081 194.038 62.707Z" fill="#1B1B1B" stroke="#1B1B1B" stroke-width="0.4" stroke-linecap="round" stroke-linejoin="round"/>
<path d="M191.495 69.414C190.983 70.3595 190.424 71.2783 189.819 72.1668C188.412 74.2387 188.859 77.0529 190.847 78.5683C193.208 80.3679 196.615 79.5313 197.89 76.843C198.428 75.7111 199.055 74.4547 199.768 73.1305C198.086 72.5979 196.25 71.8652 194.373 70.951C193.361 70.458 192.397 69.9415 191.495 69.414Z" fill="white" stroke="#1B1B1B" stroke-width="0.4" stroke-linecap="round" stroke-linejoin="round"/>
<path d="M193.924 43.2809C194.625 48.0648 194.958 52.1214 194.874 55.6997C194.814 58.2485 194.542 60.5546 194.039 62.707C195.439 63.6081 196.891 64.4238 198.389 65.1496C199.995 65.937 201.652 66.6178 203.347 67.1878C204.614 65.3165 206.022 63.4691 207.56 61.7784C210.64 58.3919 214.244 55.6362 218.286 54.5905L193.924 43.2809Z" fill="white"/>
<path fill-rule="evenodd" clip-rule="evenodd" d="M193.924 43.2809C194.625 48.0648 194.958 52.1214 194.874 55.6997C194.814 58.2485 194.542 60.5546 194.039 62.707C195.439 63.6081 196.891 64.4238 198.389 65.1496C199.995 65.937 201.652 66.6178 203.347 67.1878C204.614 65.3165 206.022 63.4691 207.56 61.7784C210.64 58.3919 214.244 55.6362 218.286 54.5905L193.924 43.2809Z" stroke="#1B1B1B" stroke-width="0.4" stroke-linecap="round" stroke-linejoin="round"/>
<ellipse cx="205.632" cy="48.4547" rx="5.13556" ry="14.5353" transform="rotate(-63.9987 205.632 48.4547)" fill="#1B1B1B" stroke="#1B1B1B" stroke-width="0.4" stroke-linecap="round" stroke-linejoin="round"/>
<ellipse cx="205.632" cy="48.4548" rx="3.80601" ry="12.9562" transform="rotate(-64.0098 205.632 48.4548)" fill="white"/>
<mask id="mask12_184_9686" style="mask-type:luminance" maskUnits="userSpaceOnUse" x="193" y="41" width="25" height="15">
<ellipse cx="205.632" cy="48.4548" rx="3.80601" ry="12.9562" transform="rotate(-64.0098 205.632 48.4548)" fill="white"/>
</mask>
<g mask="url(#mask12_184_9686)">
<path d="M209.623 55.5255L208.132 58.6196C206.663 61.6668 203.014 62.9401 199.982 61.4635C196.951 59.987 195.684 56.3196 197.153 53.2724L197.877 51.7712L198.645 50.1783C200.114 47.131 203.762 45.8577 206.794 47.3343C209.825 48.8109 211.092 52.4782 209.623 55.5255Z" fill="white"/>
<mask id="mask13_184_9686" style="mask-type:luminance" maskUnits="userSpaceOnUse" x="196" y="46" width="15" height="17">
<path fill-rule="evenodd" clip-rule="evenodd" d="M209.623 55.5255L208.132 58.6196C206.663 61.6668 203.014 62.9401 199.982 61.4635C196.951 59.987 195.684 56.3196 197.153 53.2724L197.877 51.7712L198.645 50.1783C200.114 47.131 203.762 45.8577 206.794 47.3343C209.825 48.8109 211.092 52.4782 209.623 55.5255Z" fill="white"/>
</mask>
<g mask="url(#mask13_184_9686)">
<path d="M200.508 46.3932C201.126 53.0403 212.994 56.1896 212.994 56.1896L197.876 51.7712L197.158 46.9291L199.92 45.3522" fill="white"/>
</g>
<path fill-rule="evenodd" clip-rule="evenodd" d="M209.623 55.5255L208.132 58.6196C206.663 61.6668 203.014 62.9401 199.982 61.4635V61.4635C196.951 59.987 195.684 56.3196 197.153 53.2724L197.877 51.7712L198.645 50.1783C200.114 47.131 203.762 45.8577 206.794 47.3343V47.3343C209.825 48.8109 211.092 52.4782 209.623 55.5255Z" stroke="#1B1B1B" stroke-width="0.4" stroke-linecap="round" stroke-linejoin="round"/>
</g>
<ellipse cx="205.632" cy="48.4548" rx="3.80601" ry="12.9562" transform="rotate(-64.0098 205.632 48.4548)" stroke="#1B1B1B" stroke-width="0.4" stroke-linecap="round" stroke-linejoin="round"/>
<path d="M199.072 58.3262C199.643 59.0778 200.044 59.9437 200.25 60.8646" stroke="#1B1B1B" stroke-width="0.4" stroke-linecap="round" stroke-linejoin="round"/>
<path d="M220.402 18.9413H199.006C198.401 18.9429 197.913 19.4343 197.914 20.039V29.8825C197.913 30.4872 198.401 30.9787 199.006 30.9802H212.993C213.557 31.6956 214.2 32.5105 214.667 33.1025C214.883 33.376 215.319 33.219 215.319 32.8698V30.9802H220.402C221.007 30.9787 221.496 30.4872 221.494 29.8825V20.039C221.496 19.4343 221.007 18.9429 220.402 18.9413Z" fill="white"/>
<mask id="mask14_184_9686" style="mask-type:luminance" maskUnits="userSpaceOnUse" x="197" y="18" width="25" height="16">
<path fill-rule="evenodd" clip-rule="evenodd" d="M220.402 18.9413H199.006C198.401 18.9429 197.913 19.4343 197.914 20.039V29.8825C197.913 30.4872 198.401 30.9787 199.006 30.9802H212.993C213.557 31.6956 214.2 32.5105 214.667 33.1025C214.883 33.376 215.319 33.219 215.319 32.8698V30.9802H220.402C221.007 30.9787 221.496 30.4872 221.494 29.8825V20.039C221.496 19.4343 221.007 18.9429 220.402 18.9413Z" fill="white"/>
</mask>
<g mask="url(#mask14_184_9686)">
<path d="M221.495 17.2409C221.578 34.8275 194.818 29.8849 194.818 29.8849C194.818 29.8849 199.05 35.4624 199.621 35.9496C200.193 36.4368 225.809 36.8966 225.809 36.8966L223.293 16.5513" fill="#1B1B1B"/>
<path d="M221.495 17.2409C221.578 34.8275 194.818 29.8849 194.818 29.8849C194.818 29.8849 199.05 35.4624 199.621 35.9496C200.193 36.4368 225.809 36.8966 225.809 36.8966L223.293 16.5513" stroke="#1B1B1B" stroke-width="0.4" stroke-linecap="round" stroke-linejoin="round"/>
</g>
<path fill-rule="evenodd" clip-rule="evenodd" d="M220.402 18.9413H199.006C198.401 18.9429 197.913 19.4343 197.914 20.039V29.8825C197.913 30.4872 198.401 30.9787 199.006 30.9802H212.993C213.557 31.6956 214.2 32.5105 214.667 33.1025C214.883 33.376 215.319 33.219 215.319 32.8698V30.9802H220.402C221.007 30.9787 221.496 30.4872 221.494 29.8825V20.039C221.496 19.4343 221.007 18.9429 220.402 18.9413Z" stroke="#1B1B1B" stroke-width="0.4" stroke-linecap="round" stroke-linejoin="round"/>
<ellipse cx="202.675" cy="24.6318" rx="1.09078" ry="1.09639" fill="white" stroke="#1B1B1B" stroke-width="0.4" stroke-linecap="round" stroke-linejoin="round"/>
<ellipse cx="207.235" cy="24.6318" rx="1.09078" ry="1.09639" fill="white" stroke="#1B1B1B" stroke-width="0.4" stroke-linecap="round" stroke-linejoin="round"/>
<ellipse cx="211.794" cy="24.6318" rx="1.09078" ry="1.09639" fill="white" stroke="#1B1B1B" stroke-width="0.4" stroke-linecap="round" stroke-linejoin="round"/>
<ellipse cx="216.354" cy="24.6318" rx="1.09078" ry="1.09639" fill="white" stroke="#1B1B1B" stroke-width="0.4" stroke-linecap="round" stroke-linejoin="round"/>
<path d="M217.322 27.7094C216.766 28.2069 216.154 28.6379 215.498 28.9937" stroke="#1B1B1B" stroke-width="0.4" stroke-linecap="round" stroke-linejoin="round"/>
<path d="M204.093 20.3435L203.775 20.822" stroke="#1B1B1B" stroke-width="0.4" stroke-linecap="round" stroke-linejoin="round"/>
<path d="M219.081 28.0952L217.834 29.2569" stroke="white" stroke-width="0.4" stroke-linecap="round" stroke-linejoin="round"/>
<path d="M267.271 71.0138C266.526 71.4109 265.636 71.425 264.879 71.0517L253.1 65.2459V77.9501C253.099 78.2764 253.228 78.5896 253.458 78.8209C253.688 79.0521 254 79.1825 254.327 79.1834H276.769C277.095 79.1825 277.408 79.0521 277.638 78.8209C277.868 78.5896 277.997 78.2764 277.996 77.9501V65.2992L267.271 71.0138Z" fill="white" stroke="#1B1B1B" stroke-width="0.4" stroke-linecap="round" stroke-linejoin="round"/>
<path d="M267.271 71.0135L277.996 65.2989V63.9291C277.998 63.2497 277.448 62.6976 276.769 62.6959H254.327C253.647 62.6976 253.098 63.2497 253.1 63.9291V65.2456L264.879 71.0513C265.636 71.4247 266.526 71.4106 267.271 71.0135Z" fill="white" stroke="#1B1B1B" stroke-width="0.4" stroke-linecap="round" stroke-linejoin="round"/>
<ellipse cx="277.996" cy="64.0393" rx="4.47209" ry="4.49508" fill="white"/>
<mask id="mask15_184_9686" style="mask-type:luminance" maskUnits="userSpaceOnUse" x="273" y="59" width="10" height="10">
<ellipse cx="277.996" cy="64.0393" rx="4.47209" ry="4.49508" fill="white"/>
</mask>
<g mask="url(#mask15_184_9686)">
<path d="M275.461 58.0881C284.448 59.1773 281.899 67.2608 279.349 68.7928C276.799 70.3248 284.576 68.5346 284.576 68.5346L283.173 59.5444L278.674 58.0881" fill="white"/>
</g>
<ellipse cx="277.996" cy="64.0393" rx="4.47209" ry="4.49508" stroke="#8F6EE3" stroke-width="0.4" stroke-linecap="round" stroke-linejoin="round"/>
<path d="M278.67 65.7994H278.041V63.014L277.318 63.4344L277.323 62.8017L278.21 62.2795H278.674L278.67 65.7994Z" fill="white" stroke="#1B1B1B" stroke-width="0.4" stroke-linecap="round" stroke-linejoin="round"/>
<path d="M256.608 64.1865L256.014 64.6992" stroke="#1B1B1B" stroke-width="0.4" stroke-linecap="round" stroke-linejoin="round"/>
<path d="M272.588 75.645L270.975 76.0781" stroke="#1B1B1B" stroke-width="0.4" stroke-linecap="round" stroke-linejoin="round"/>
<defs>
<linearGradient id="paint0_linear_184_9686" x1="0" y1="62" x2="287" y2="62" gradientUnits="userSpaceOnUse">
<stop stop-color="#FFF58B"/>
<stop offset="0.000100017" stop-color="#EBEBEB"/>
<stop offset="1" stop-color="#A4FFDA"/>
</linearGradient>
<linearGradient id="paint1_linear_184_9686" x1="201.239" y1="62.1179" x2="209.666" y2="62.2309" gradientUnits="userSpaceOnUse">
<stop stop-color="#FFFEFF"/>
<stop offset="1" stop-color="#C5EFFE"/>
</linearGradient>
</defs>
</svg>
