<svg width="30" height="30" viewBox="0 0 30 30" fill="none" xmlns="http://www.w3.org/2000/svg">
<path d="M21.9653 7.17867C19.6556 4.74967 18.4995 3.38379 19.5554 1.27195C19.6224 1.13796 19.654 0.989059 19.6473 0.839398C19.6405 0.689738 19.5957 0.544283 19.5169 0.416845C19.4381 0.289407 19.3281 0.184216 19.1973 0.11126C19.0664 0.0383039 18.9191 5.09185e-06 18.7693 0C15.4893 0 14.0932 2.72092 13.1793 4.37273C12.416 5.75221 11.9045 6.58986 11.2381 6.58986C10.5249 6.58986 10.2585 6.14215 10.2342 5.58094C10.2498 4.83844 9.35825 4.42553 8.79253 4.9108C5.71882 7.45652 2.64581 13.1144 2.82804 17.8243C2.82792 24.5379 8.28997 30 15.0037 30C21.7317 30 27.1795 24.4997 27.1795 17.8242C27.1794 12.6622 24.2883 9.62168 21.9653 7.17867ZM15.0037 26.2344C10.3663 26.2344 6.5935 22.4616 6.5935 17.8242C7.01632 6.68232 22.9927 6.68531 23.4138 17.8243C23.4138 22.4616 19.641 26.2344 15.0037 26.2344Z" fill="white"/>
<path d="M20.6529 16.9453H21.5986C21.4425 15.7674 20.9768 14.686 20.2865 13.7853C19.4322 14.5806 18.2485 13.3959 19.0436 12.5423C18.1428 11.8518 17.0613 11.3861 15.8833 11.23V12.1758C15.8833 12.6612 15.4898 13.0547 15.0044 13.0547C14.519 13.0547 14.1255 12.6612 14.1255 12.1758V11.23C12.9464 11.3864 11.864 11.8528 10.9627 12.5443C11.6485 13.3828 10.5621 14.468 9.72441 13.7826C9.03289 14.6838 8.56648 15.7662 8.41016 16.9454H9.35592C9.84131 16.9454 10.2348 17.3389 10.2348 17.8243C10.2348 18.3097 9.84131 18.7032 9.35592 18.7032H8.41016C8.56648 19.8823 9.03289 20.9647 9.72441 21.866C10.5628 21.1802 11.6482 22.2667 10.9627 23.1042C11.8639 23.7957 12.9463 24.2622 14.1254 24.4185V23.4727C14.1254 22.9873 14.519 22.5938 15.0044 22.5938C15.4897 22.5938 15.8833 22.9873 15.8833 23.4727V24.4184C17.0623 24.2621 18.1447 23.7957 19.046 23.1042C18.3603 22.2656 19.4467 21.1804 20.2844 21.8658C20.9759 20.9646 21.4423 19.8822 21.5986 18.7031H20.6529C19.4882 18.6601 19.4886 16.9882 20.6529 16.9453ZM17.9794 16.0922L15.6259 18.4457C15.461 18.6105 15.2375 18.7031 15.0044 18.7031C14.7713 18.7031 14.5478 18.6105 14.383 18.4457L12.9709 17.0336C12.1781 16.1803 13.3597 14.9974 14.2138 15.7907L15.0045 16.5813L16.7365 14.8492C17.5902 14.0562 18.7723 15.2385 17.9794 16.0922Z" fill="white"/>
</svg>
