<svg width="38" height="44" viewBox="0 0 38 44" fill="none" xmlns="http://www.w3.org/2000/svg">
<path d="M16.3958 25.0834C16.3958 23.6451 17.5618 22.4792 19 22.4792C20.4382 22.4792 21.6042 23.6451 21.6042 25.0834C21.6042 26.5216 20.4382 27.6875 19 27.6875C17.5618 27.6875 16.3958 26.5216 16.3958 25.0834Z" fill="url(#paint0_linear_314_640)"/>
<path fill-rule="evenodd" clip-rule="evenodd" d="M19 0.604187C12.3841 0.604187 7.02083 5.96744 7.02083 12.5834V14.9036C7.02083 15.0428 7.03903 15.1777 7.07318 15.3061C4.08131 16.4055 1.7493 18.8191 0.759828 21.8644C0.25 23.4335 0.25 25.3724 0.25 29.25C0.25 33.1277 0.25 35.0665 0.759828 36.6356C1.79022 39.8068 4.27651 42.2931 7.44774 43.3235C9.01682 43.8334 10.9556 43.8334 14.8333 43.8334H23.1667C27.0443 43.8334 28.9832 43.8334 30.5523 43.3235C33.7235 42.2931 36.2098 39.8068 37.2402 36.6356C37.75 35.0665 37.75 33.1277 37.75 29.25C37.75 25.3724 37.75 23.4335 37.2402 21.8644C36.2507 18.8191 33.9187 16.4055 30.9268 15.3061C30.961 15.1777 30.9792 15.0428 30.9792 14.9036V12.5834C30.9792 5.96744 25.6159 0.604187 19 0.604187ZM23.1667 14.6667C25.1777 14.6667 26.6672 14.6667 27.8542 14.7378V12.5834C27.8542 7.69333 23.89 3.72919 19 3.72919C14.11 3.72919 10.1458 7.69333 10.1458 12.5834V14.7378C11.3328 14.6667 12.8223 14.6667 14.8333 14.6667H23.1667ZM13.2708 25.0834C13.2708 21.9192 15.8359 19.3542 19 19.3542C22.1641 19.3542 24.7292 21.9192 24.7292 25.0834C24.7292 27.7058 22.9672 29.9167 20.5625 30.5969V37.5834C20.5625 38.4463 19.8629 39.1459 19 39.1459C18.1371 39.1459 17.4375 38.4463 17.4375 37.5834V30.5969C15.0328 29.9167 13.2708 27.7058 13.2708 25.0834Z" fill="url(#paint1_linear_314_640)"/>
<defs>
<linearGradient id="paint0_linear_314_640" x1="7.08594" y1="64.9976" x2="63.1336" y2="27.138" gradientUnits="userSpaceOnUse">
<stop stop-color="#982DEC"/>
<stop offset="0.572917" stop-color="#DC8DF8"/>
<stop offset="0.895833" stop-color="#A9C4F3"/>
</linearGradient>
<linearGradient id="paint1_linear_314_640" x1="7.08594" y1="64.9976" x2="63.1336" y2="27.138" gradientUnits="userSpaceOnUse">
<stop stop-color="#982DEC"/>
<stop offset="0.572917" stop-color="#DC8DF8"/>
<stop offset="0.895833" stop-color="#A9C4F3"/>
</linearGradient>
</defs>
</svg>
