<svg width="16" height="15" viewBox="0 0 16 15" fill="none" xmlns="http://www.w3.org/2000/svg">
<g clip-path="url(#clip0_231_4982)">
<path d="M15.4084 14.0247L11.0511 9.66728C11.8775 8.64696 12.375 7.34981 12.375 5.93752C12.375 2.66359 9.71142 0 6.43749 0C3.16356 0 0.5 2.66359 0.5 5.93752C0.5 9.21145 3.16359 11.875 6.43752 11.875C7.84981 11.875 9.14696 11.3775 10.1673 10.5511L14.5247 14.9085C14.6468 15.0305 14.8446 15.0305 14.9667 14.9085L15.4085 14.4666C15.5305 14.3446 15.5305 14.1467 15.4084 14.0247ZM6.43752 10.625C3.85268 10.625 1.75001 8.52236 1.75001 5.93752C1.75001 3.35268 3.85268 1.25001 6.43752 1.25001C9.02236 1.25001 11.125 3.35268 11.125 5.93752C11.125 8.52236 9.02236 10.625 6.43752 10.625Z" fill="white"/>
</g>
<defs>
<clipPath id="clip0_231_4982">
<rect width="15" height="15" fill="white" transform="translate(0.5)"/>
</clipPath>
</defs>
</svg>
